<svg xmlns="http://www.w3.org/2000/svg" xmlns:xlink="http://www.w3.org/1999/xlink" width="728" height="349.556" viewBox="0 0 728 349.556">
  <defs>
    <linearGradient id="linear-gradient" y1="0.5" x2="1" y2="0.5" gradientUnits="objectBoundingBox">
      <stop offset="0" stop-color="#2033a0"/>
      <stop offset="0.861" stop-color="#4153ba"/>
      <stop offset="1" stop-color="#4759bf"/>
    </linearGradient>
    <linearGradient id="linear-gradient-2" y1="0.5" x2="1" y2="0.5" gradientUnits="objectBoundingBox">
      <stop offset="0" stop-color="#ff276a"/>
      <stop offset="0.344" stop-color="#ff4880"/>
      <stop offset="1" stop-color="#ff91b3"/>
    </linearGradient>
    <linearGradient id="linear-gradient-3" x1="0" y1="0.5" x2="1" y2="0.5" xlink:href="#linear-gradient"/>
    <linearGradient id="linear-gradient-4" y1="0.5" x2="1" y2="0.5" gradientUnits="objectBoundingBox">
      <stop offset="0" stop-color="#5ddaf4"/>
      <stop offset="1" stop-color="#976fe4"/>
    </linearGradient>
    <linearGradient id="linear-gradient-5" x1="-0.247" y1="0.875" x2="0.69" y2="0.875" gradientUnits="objectBoundingBox">
      <stop offset="0" stop-color="#976fe4"/>
      <stop offset="1" stop-color="#ef9ea3"/>
    </linearGradient>
    <linearGradient id="linear-gradient-6" x1="-0.249" y1="0.901" x2="0.688" y2="0.901" xlink:href="#linear-gradient-5"/>
  </defs>
  <g id="Group_6238" data-name="Group 6238" transform="translate(-7.207 -132.74)">
    <g id="Group_6207" data-name="Group 6207" transform="translate(516.479 289.636)">
      <path id="Path_14039" data-name="Path 14039" d="M1.96,0H75.2a1.96,1.96,0,0,1,1.96,1.96V38.481a1.96,1.96,0,0,1-1.96,1.96H1.96A1.96,1.96,0,0,1,0,38.481V1.96A1.96,1.96,0,0,1,1.96,0Z" transform="translate(0 0)" fill="#fff" stroke="#c0ccda" stroke-width="0.6"/>
      <rect id="Rectangle_4720" data-name="Rectangle 4720" width="4.486" height="2.276" transform="translate(3.863 3.273)" fill="#c0c8d8"/>
      <rect id="Rectangle_4721" data-name="Rectangle 4721" width="34.471" height="2.276" transform="translate(37.836 6.921)" fill="#c0c8d8"/>
      <rect id="Rectangle_4722" data-name="Rectangle 4722" width="34.471" height="2.276" transform="translate(37.836 13.341)" fill="#c0c8d8"/>
      <rect id="Rectangle_4723" data-name="Rectangle 4723" width="34.471" height="2.276" transform="translate(37.836 19.761)" fill="#c0c8d8"/>
      <rect id="Rectangle_4724" data-name="Rectangle 4724" width="19.751" height="2.276" transform="translate(37.836 26.181)" fill="#c0c8d8"/>
      <rect id="Rectangle_4725" data-name="Rectangle 4725" width="4.486" height="2.276" transform="translate(3.863 9.56)" fill="#c0c8d8"/>
      <rect id="Rectangle_4726" data-name="Rectangle 4726" width="4.486" height="2.276" transform="translate(3.863 15.846)" fill="#c0c8d8"/>
      <rect id="Rectangle_4727" data-name="Rectangle 4727" width="4.486" height="2.276" transform="translate(3.863 22.132)" fill="#c0c8d8"/>
      <rect id="Rectangle_4728" data-name="Rectangle 4728" width="4.486" height="2.276" transform="translate(3.863 28.419)" fill="#c0c8d8"/>
      <rect id="Rectangle_4729" data-name="Rectangle 4729" width="4.486" height="2.276" transform="translate(3.863 34.705)" fill="#c0c8d8"/>
      <path id="Path_13966" data-name="Path 13966" d="M365.959,241.025v10.559l0,0,7.451,7.471a10.529,10.529,0,0,0,3.1-7.445v-.031A10.559,10.559,0,0,0,365.959,241.025Z" transform="translate(-342.46 -237.11)" fill="#c0c8d8"/>
      <path id="Path_13967" data-name="Path 13967" d="M361.606,244.108a10.524,10.524,0,0,0-3.1,7.455l10.557.025V241.025A10.521,10.521,0,0,0,361.606,244.108Z" transform="translate(-346.076 -237.11)" fill="url(#linear-gradient)"/>
      <path id="Path_13968" data-name="Path 13968" d="M369.068,248.493h-.006l-10.557-.027v.021a10.559,10.559,0,0,0,18.015,7.476Z" transform="translate(-346.076 -233.501)" fill="#c0c8d8"/>
    </g>
    <g id="Group_6208" data-name="Group 6208" transform="translate(181.395 314.588)">
      <path id="Path_14040" data-name="Path 14040" d="M2.744,0H83.315a2.744,2.744,0,0,1,2.744,2.744V25.317a2.744,2.744,0,0,1-2.744,2.744H2.744A2.744,2.744,0,0,1,0,25.317V2.744A2.744,2.744,0,0,1,2.744,0Z" transform="translate(0.001)" fill="#fff" stroke="#c0ccda" stroke-width="0.6"/>
      <path id="Path_13969" data-name="Path 13969" d="M206.519,255.191H128.542a4.042,4.042,0,0,0-4.042,4.041v2.593h86.06v-2.593A4.041,4.041,0,0,0,206.519,255.191Z" transform="translate(-124.5 -255.19)" fill="#c0c8d8"/>
      <path id="Path_13970" data-name="Path 13970" d="M141.791,269.252a6.574,6.574,0,1,1-6.573-6.574A6.574,6.574,0,0,1,141.791,269.252Z" transform="translate(-122.49 -251.559)" fill="#c0c8d8"/>
      <rect id="Rectangle_4731" data-name="Rectangle 4731" width="55.979" height="1.771" transform="translate(22.843 11.661)" fill="#c0c8d8"/>
      <rect id="Rectangle_4732" data-name="Rectangle 4732" width="55.979" height="1.771" transform="translate(22.843 16.816)" fill="#c0c8d8"/>
      <rect id="Rectangle_4733" data-name="Rectangle 4733" width="20.992" height="1.771" transform="translate(22.843 21.971)" fill="#c0c8d8"/>
    </g>
    <path id="Path_13971" data-name="Path 13971" d="M130.325,257.7a.841.841,0,1,1-.841-.841A.841.841,0,0,1,130.325,257.7Z" transform="translate(58.905 60.206)" fill="#fff"/>
    <path id="Path_13972" data-name="Path 13972" d="M132.784,257.7a.841.841,0,1,1-.841-.841A.841.841,0,0,1,132.784,257.7Z" transform="translate(60.098 60.206)" fill="#fff"/>
    <path id="Path_13973" data-name="Path 13973" d="M135.243,257.7a.841.841,0,1,1-.841-.841A.841.841,0,0,1,135.243,257.7Z" transform="translate(61.291 60.206)" fill="#fff"/>
    <g id="Group_6209" data-name="Group 6209" transform="translate(254.34 213.147)">
      <path id="Path_14038" data-name="Path 14038" d="M1.992,0H62.733a1.992,1.992,0,0,1,1.992,1.992V36.054a1.992,1.992,0,0,1-1.992,1.992H1.992A1.992,1.992,0,0,1,0,36.054V1.992A1.992,1.992,0,0,1,1.992,0Z" fill="#fff" stroke="#c0ccda" stroke-width="0.6"/>
      <rect id="Rectangle_4735" data-name="Rectangle 4735" width="26.025" height="2.317" transform="translate(6.338 4.258)" fill="#c0c8d8"/>
      <rect id="Rectangle_4736" data-name="Rectangle 4736" width="13.012" height="2.317" transform="translate(6.338 9.241)" fill="#c0c8d8"/>
      <path id="Path_13974" data-name="Path 13974" d="M175.955,214.656c2.128-2.885,4.418-6.591,6.854-9.221a5.685,5.685,0,0,1,3.08-2.076c1.764-.266,3.318,1.077,4.62,2.3,1.558,1.457,3.266,2.93,5.363,3.322,2.581.48,5.138-.78,7.442-2.042a17.386,17.386,0,0,0,5.474-4.063c1.374-1.721,2.143-3.97,3.915-5.278a1.889,1.889,0,0,1,2.823.327c1.228,1.261,1.668,3.062,2.3,4.7s1.706,3.344,3.422,3.732c2.235.5,4.256-1.461,5.394-3.448s2.023-4.32,4.007-5.465a2.035,2.035,0,0,1,2.012-.193,2.559,2.559,0,0,1,.878,2.075q.446,4.838.888,9.68c.123,1.341.214,4.555-.563,5.654Z" transform="translate(-172.486 -181.95)" fill="url(#linear-gradient-2)"/>
    </g>
    <g id="Group_6210" data-name="Group 6210" transform="translate(390.929 167.767)">
      <rect id="Rectangle_4737" data-name="Rectangle 4737" width="112.766" height="48.195" rx="4.305" fill="#fff" stroke="#c0ccda" stroke-width="0.6"/>
      <rect id="Rectangle_4738" data-name="Rectangle 4738" width="2.054" height="34.808" transform="translate(6.516 6.694)" fill="#c0c8d8"/>
      <rect id="Rectangle_4739" data-name="Rectangle 4739" width="2.054" height="34.808" transform="translate(11.786 6.694)" fill="#c0c8d8"/>
      <rect id="Rectangle_4740" data-name="Rectangle 4740" width="2.054" height="34.808" transform="translate(17.057 6.694)" fill="#c0c8d8"/>
      <rect id="Rectangle_4741" data-name="Rectangle 4741" width="2.054" height="34.808" transform="translate(22.327 6.694)" fill="#c0c8d8"/>
      <rect id="Rectangle_4742" data-name="Rectangle 4742" width="2.054" height="34.808" transform="translate(27.597 6.694)" fill="#c0c8d8"/>
      <rect id="Rectangle_4743" data-name="Rectangle 4743" width="2.054" height="34.808" transform="translate(32.867 6.694)" fill="#c0c8d8"/>
      <path id="Path_13975" data-name="Path 13975" d="M272.034,194.562h-2.052V179.239h2.052Zm5.271-21.688h-2.054v21.688H277.3Zm5.27-3.236h-2.054v24.924h2.054Zm5.269,3.236h-2.052v21.688h2.052Zm5.27-6.364h-2.054v28.051h2.054Zm5.271-3.453h-2.054v31.5h2.054Z" transform="translate(-263.465 -153.061)" fill="url(#linear-gradient-3)"/>
      <path id="Path_13976" data-name="Path 13976" d="M308.6,166.67a5.692,5.692,0,1,1-5.692-5.694A5.692,5.692,0,0,1,308.6,166.67Z" transform="translate(-250.254 -154.071)" fill="#c0c8d8"/>
      <rect id="Rectangle_4744" data-name="Rectangle 4744" width="46.04" height="1.533" transform="translate(61.416 7.806)" fill="#c0c8d8"/>
      <rect id="Rectangle_4745" data-name="Rectangle 4745" width="46.04" height="1.533" transform="translate(61.416 12.27)" fill="#c0c8d8"/>
      <rect id="Rectangle_4746" data-name="Rectangle 4746" width="19.287" height="1.533" transform="translate(61.416 16.735)" fill="#c0c8d8"/>
      <path id="Path_13977" data-name="Path 13977" d="M308.6,181.487a5.692,5.692,0,1,1-5.692-5.692A5.692,5.692,0,0,1,308.6,181.487Z" transform="translate(-250.254 -146.882)" fill="#c0c8d8"/>
      <rect id="Rectangle_4747" data-name="Rectangle 4747" width="46.04" height="1.533" transform="translate(61.416 29.812)" fill="#c0c8d8"/>
      <rect id="Rectangle_4748" data-name="Rectangle 4748" width="46.04" height="1.533" transform="translate(61.416 34.277)" fill="#c0c8d8"/>
      <rect id="Rectangle_4749" data-name="Rectangle 4749" width="19.287" height="1.533" transform="translate(61.416 38.741)" fill="#c0c8d8"/>
      <path id="Path_13978" data-name="Path 13978" d="M303.955,165.3a.155.155,0,0,1,.2.22l-2.133,3.575a.122.122,0,0,1-.218,0l-2.3-3.561a.155.155,0,0,1,.2-.224l2.116.806Z" transform="translate(-249.158 -151.98)" fill="#fff"/>
      <path id="Path_13979" data-name="Path 13979" d="M299.472,166.337l2.341-4.555a.113.113,0,0,1,.2,0l2.161,4.553a.1.1,0,0,1-.058.14l-2.3.835-2.293-.833A.1.1,0,0,1,299.472,166.337Z" transform="translate(-249.166 -153.709)" fill="#00a651"/>
      <path id="Path_13980" data-name="Path 13980" d="M299.472,166.337l2.341-4.555a.113.113,0,0,1,.2,0l2.161,4.553a.1.1,0,0,1-.058.14l-2.3.835-2.293-.833A.1.1,0,0,1,299.472,166.337Z" transform="translate(-249.166 -153.709)" fill="#fff"/>
      <path id="Path_13981" data-name="Path 13981" d="M301.92,165.043v-3.321a.109.109,0,0,0-.108.059l-2.34,4.555a.1.1,0,0,0,0,.079Z" transform="translate(-249.166 -153.709)" fill="#fff"/>
      <path id="Path_13982" data-name="Path 13982" d="M301.117,161.722v3.321l2.256,1.377a.1.1,0,0,0,0-.082l-2.161-4.553A.111.111,0,0,0,301.117,161.722Z" transform="translate(-248.362 -153.709)" fill="#fff"/>
      <path id="Path_13983" data-name="Path 13983" d="M302.355,183.191h-1.923a.8.8,0,0,1-.8-.8v-.411h1.142v.071h1.583a.552.552,0,0,0,.551-.551.359.359,0,0,0-.359-.359H301.13a1.5,1.5,0,0,1-1.5-1.5v-.2a1.7,1.7,0,0,1,1.693-1.694h1.923a.8.8,0,0,1,.8.8v.466h-1.142v-.126h-1.583a.552.552,0,0,0-.551.552v.2a.358.358,0,0,0,.358.359h1.417a1.5,1.5,0,0,1,1.5,1.5A1.7,1.7,0,0,1,302.355,183.191Z" transform="translate(-249.084 -145.94)" fill="#fff"/>
      <rect id="Rectangle_4750" data-name="Rectangle 4750" width="1.141" height="6.722" transform="translate(52.184 31.244)" fill="#fff"/>
    </g>
    <g id="Group_6211" data-name="Group 6211" transform="translate(577.514 375.58)">
      <path id="Path_13984" data-name="Path 13984" d="M456.451,353.979c-8.775,11.03-29.62,9.049-46.557-4.427s-23.556-33.341-14.781-44.371,29.621-9.049,46.558,4.426S465.226,342.948,456.451,353.979Z" transform="translate(-391.234 -295.394)" fill="url(#linear-gradient-4)"/>
      <path id="Path_13985" data-name="Path 13985" d="M456.451,353.979c-8.775,11.03-29.62,9.049-46.557-4.427s-23.556-33.341-14.781-44.371,29.621-9.049,46.558,4.426S465.226,342.948,456.451,353.979Z" transform="translate(-391.234 -295.394)" fill="#e87613"/>
      <path id="Path_13986" data-name="Path 13986" d="M459.132,352.192c-8.775,11.03-29.62,9.048-46.558-4.427s-23.555-33.341-14.779-44.371,29.62-9.049,46.558,4.425S467.907,341.161,459.132,352.192Z" transform="translate(-389.934 -296.261)" fill="#f7931a"/>
      <path id="Path_13987" data-name="Path 13987" d="M430.889,335.157c1.3-1.638.986-4.238-.548-6.821a4.513,4.513,0,0,0,2.915-1.553c1.72-2.162.879-5.78-1.764-8.75l2.242-2.819-4.555-3.625-2.106,2.646-1.5-1.194,2.106-2.646-4.556-3.624-2.1,2.645-2.281-1.815-2.361,2.967,2.283,1.815-7.71,9.692-2.283-1.815-2.36,2.967,2.281,1.815-1.5,1.884,4.555,3.624,1.5-1.883,1.5,1.194-1.5,1.883,4.556,3.625,1.5-1.888C423.613,336.967,428.847,337.723,430.889,335.157Zm-3.45-15.788c1.443,1.149,2.009,2.848,1.261,3.788-.6.751-1.856.783-3.076.183l-5.049-4.017,2.637-3.315Zm-5.928,11.111L415.5,325.7l2.637-3.316,4.227,3.362a13.961,13.961,0,0,0,1.512,1.05l.346.275c1.879,1.494,2.845,3.537,2.11,4.461S423.389,331.976,421.511,330.48Z" transform="translate(-383.924 -291.162)" fill="#fff"/>
    </g>
    <path id="Path_13988" data-name="Path 13988" d="M153.891,272.19c-5.808,4.068-15.177.713-20.926-7.494s-5.7-18.158.111-22.227,15.177-.714,20.926,7.494S159.7,268.12,153.891,272.19Z" transform="translate(58.926 52.387)" fill="#e87613"/>
    <path id="Path_13989" data-name="Path 13989" d="M155.417,271.677c-5.81,4.068-15.177.714-20.926-7.494s-5.7-18.158.111-22.227,15.177-.713,20.926,7.494S161.226,267.608,155.417,271.677Z" transform="translate(59.666 52.139)" fill="#f7931a"/>
    <path id="Path_13990" data-name="Path 13990" d="M144.683,260.562a3,3,0,0,0,.818-3.215,2.362,2.362,0,0,0,1.6-.377c1.139-.8,1.317-2.566.557-4.247l1.485-1.041-1.546-2.207-1.394.976-.509-.726,1.394-.977-1.546-2.207-1.394.976-.774-1.1-1.562,1.095.774,1.1-5.1,3.575-.774-1.1-1.562,1.095.774,1.1-.992.7,1.546,2.208.992-.7.509.726-.992.7,1.546,2.208.994-.7C141.019,260.547,143.331,261.508,144.683,260.562Zm.879-7.7a1.384,1.384,0,0,1-.01,1.9,1.208,1.208,0,0,1-1.457-.276l-1.714-2.446,1.746-1.224Zm-4.5,4.439-2.039-2.911,1.746-1.224,1.435,2.048a5.637,5.637,0,0,0,.538.661l.117.168c.637.91.765,1.968.278,2.308S141.7,258.214,141.062,257.3Z" transform="translate(61.951 55.138)" fill="#fff"/>
    <g id="Group_6212" data-name="Group 6212" transform="translate(176.796 373.401)">
      <ellipse id="Ellipse_1492" data-name="Ellipse 1492" cx="20.339" cy="35.227" rx="20.339" ry="35.227" transform="translate(0 21.732) rotate(-32.294)" fill="#a8a8a8"/>
      <path id="Path_13991" data-name="Path 13991" d="M150.471,303.865c-14.006-7.356-24.948-.44-24.315,15.368s12.611,34.758,26.617,42.112,24.948.44,24.314-15.366S164.476,311.221,150.471,303.865Z" transform="translate(-119.111 -291.82)" fill="#bfbbbb"/>
      <path id="Path_13992" data-name="Path 13992" d="M153.962,345.2l-.278-6.953-7.271-3.8-.252-6.3,2.275-1.425-.17-4.231-2.273,1.48-.417-10.417L139.4,310.35l.7,17.417-1.847,1.168.185,4.034,1.826-1.1.252,6.291Z" transform="translate(-113.233 -287.247)" fill="#fff"/>
    </g>
    <g id="Group_6214" data-name="Group 6214" transform="translate(7.207 326.465)">
      <ellipse id="Ellipse_1493" data-name="Ellipse 1493" cx="26.27" cy="30.942" rx="26.27" ry="30.942" transform="translate(0 36.587) rotate(-41.319)" fill="#627eea"/>
      <ellipse id="Ellipse_1494" data-name="Ellipse 1494" cx="26.27" cy="30.942" rx="26.27" ry="30.942" transform="matrix(0.834, -0.552, 0.552, 0.834, 4.619, 28.982)" fill="#627eea"/>
      <g id="Group_6213" data-name="Group 6213" transform="translate(31.048 29.263)">
        <path id="Path_13993" data-name="Path 13993" d="M44.793,300.874c.578.293.552,1.121-.037,1.185L28.77,303.8a.573.573,0,0,1-.634-.7l3.26-16.134c.12-.594.964-.526,1.184.1l3.826,8.847Z" transform="translate(-28.114 -281.118)" fill="#bef0fb"/>
        <path id="Path_13994" data-name="Path 13994" d="M32.073,286.347,51.357,282.9a.53.53,0,0,1,.569.664l-6.4,18.1a.36.36,0,0,1-.552.153L36.1,296.364l-4.261-9.487A.358.358,0,0,1,32.073,286.347Z" transform="translate(-26.328 -282.893)" fill="#bef0fb"/>
        <path id="Path_13995" data-name="Path 13995" d="M42.639,291.178l9.178-8.067a.5.5,0,0,0-.475-.211l-19.284,3.447a.321.321,0,0,0-.229.178Z" transform="translate(-26.312 -282.893)" fill="#9ee9f8"/>
        <path id="Path_13996" data-name="Path 13996" d="M48.284,283.037l-9.176,8.071L41.76,301.8a.328.328,0,0,0,.22-.206l6.4-18.1A.493.493,0,0,0,48.284,283.037Z" transform="translate(-22.782 -282.824)" fill="#7de1f6"/>
      </g>
    </g>
    <g id="Group_6216" data-name="Group 6216" transform="translate(431.825 321.537)">
      <ellipse id="Ellipse_1495" data-name="Ellipse 1495" cx="23.515" cy="19.965" rx="23.515" ry="19.965" transform="translate(0.605 27.956) rotate(-34.37)" fill="#5977d8"/>
      <ellipse id="Ellipse_1496" data-name="Ellipse 1496" cx="23.515" cy="19.965" rx="23.515" ry="19.965" transform="translate(0 21.006) rotate(-26.529)" fill="#627eea"/>
      <g id="Group_6215" data-name="Group 6215" transform="translate(22.782 17.536)">
        <path id="Path_13997" data-name="Path 13997" d="M321.905,277.5c.273-.41.9-.315.89.135l-.155,12.221a.437.437,0,0,1-.59.414l-11.872-3.943c-.437-.146-.309-.777.181-.885l7.024-2.072Z" transform="translate(-307.774 -268.981)" fill="#bef0fb"/>
        <path id="Path_13998" data-name="Path 13998" d="M309.3,286.944l-.827-14.864a.4.4,0,0,1,.552-.368L322.09,278.2a.274.274,0,0,1,.064.431l-4.926,6.194-7.549,2.342A.273.273,0,0,1,309.3,286.944Z" transform="translate(-308.473 -271.678)" fill="#bef0fb"/>
        <path id="Path_13999" data-name="Path 13999" d="M313.919,279.385l-5.242-7.664a.375.375,0,0,0-.2.339l.827,14.864a.24.24,0,0,0,.113.189Z" transform="translate(-308.473 -271.657)" fill="#9ee9f8"/>
        <path id="Path_14000" data-name="Path 14000" d="M308.607,271.741l5.247,7.664,8.306-1.019a.248.248,0,0,0-.135-.184l-13.064-6.491A.371.371,0,0,0,308.607,271.741Z" transform="translate(-308.407 -271.678)" fill="#7de1f6"/>
      </g>
    </g>
    <g id="Group_6217" data-name="Group 6217" transform="translate(286.702 355.745)">
      <path id="Path_14001" data-name="Path 14001" d="M215.694,305.471c-8.94,3.108-17.834.892-19.867-4.95s3.569-13.1,12.509-16.21,17.836-.893,19.869,4.95S224.636,302.361,215.694,305.471Z" transform="translate(-195.411 -282.905)" fill="#4cb4d8"/>
      <path id="Path_14002" data-name="Path 14002" d="M216.244,307.052c-8.94,3.108-17.836.893-19.867-4.95s3.569-13.1,12.509-16.208,17.836-.894,19.867,4.948S225.184,303.942,216.244,307.052Z" transform="translate(-195.144 -282.138)" fill="#57beea"/>
      <path id="Path_14003" data-name="Path 14003" d="M209.359,298.389a1.745,1.745,0,0,0-.411-2.049c.071-.043.135-.094.209-.135a4.475,4.475,0,0,1,1.937-.489c.062,1.05,1.054,1.833,2.6,1.873a5.074,5.074,0,0,0,4.639-2.583c.6-1.478-.49-2.716-2.447-2.768a5.406,5.406,0,0,0-4.229,1.907,2.129,2.129,0,0,1-1.435-.53,1.809,1.809,0,0,1-.2-.3,4.284,4.284,0,0,0,2.274-2.084c.6-1.478-.49-2.718-2.447-2.768a5.072,5.072,0,0,0-4.638,2.583c-.6,1.475.486,2.71,2.434,2.767a2.015,2.015,0,0,1-.1,1.071,3.2,3.2,0,0,1-.481.754c-.052,0-.1-.015-.15-.016a5.078,5.078,0,0,0-4.639,2.584c-.6,1.478.49,2.716,2.447,2.768A5.073,5.073,0,0,0,209.359,298.389Z" transform="translate(-192.162 -280.21)" fill="#fff"/>
    </g>
    <g id="Group_6218" data-name="Group 6218" transform="translate(678.877 132.74)">
      <path id="Path_14004" data-name="Path 14004" d="M502.093,162.732c-3.851,12.574-16.254,19.925-27.7,16.417s-17.606-16.542-13.753-29.116,16.254-19.925,27.7-16.419S505.945,150.157,502.093,162.732Z" transform="translate(-459.489 -132.74)" fill="#4cb4d8"/>
      <path id="Path_14005" data-name="Path 14005" d="M504.691,163.181c-3.851,12.574-16.254,19.925-27.7,16.417s-17.605-16.542-13.753-29.116,16.254-19.925,27.7-16.419S508.543,150.606,504.691,163.181Z" transform="translate(-458.229 -132.522)" fill="#57beea"/>
      <path id="Path_14006" data-name="Path 14006" d="M486.464,156.509a4.427,4.427,0,0,0-3.719-1.55c0-.119-.018-.238-.01-.356a4.577,4.577,0,0,1,1.133-2.545,4.684,4.684,0,0,0,5.6-.952,5.614,5.614,0,0,0,.432-7.467,4.612,4.612,0,0,0-6.9-.076,5.7,5.7,0,0,0-1.12,6.372,3.461,3.461,0,0,1-2.278,1.017,4.773,4.773,0,0,1-.682-.079,5.344,5.344,0,0,0-1.108-4.455,4.612,4.612,0,0,0-6.9-.076,5.614,5.614,0,0,0-.434,7.467,4.613,4.613,0,0,0,6.882.088A4.715,4.715,0,0,1,479,155.042a5.148,5.148,0,0,1,.74,1.246c-.057.052-.119.091-.174.146a5.614,5.614,0,0,0-.434,7.467,4.613,4.613,0,0,0,6.9.076A5.613,5.613,0,0,0,486.464,156.509Z" transform="translate(-454.746 -128.223)" fill="#fff"/>
    </g>
    <g id="Group_6219" data-name="Group 6219" transform="translate(282.092 148.156)">
      <ellipse id="Ellipse_1497" data-name="Ellipse 1497" cx="10.043" cy="16.612" rx="10.043" ry="16.612" transform="translate(0 18.225) rotate(-65.142)" fill="#152c89"/>
      <path id="Path_14007" data-name="Path 14007" d="M226.091,162.885c-2.332,5.033-10.97,5.986-19.294,2.13s-13.183-11.064-10.851-16.1,10.97-5.986,19.3-2.13S228.424,157.852,226.091,162.885Z" transform="translate(-190.824 -142.49)" fill="#2033a0"/>
      <g id="Path_12338" data-name="Path 12338" transform="translate(12.459 6.489)">
        <path id="Path_12340" data-name="Path 12340" d="M209.307,152.143c-.031-.019-.064-.037-.1-.053-.76-.37-1.206-1.023-.995-1.46s1-.493,1.761-.123,1.206,1.023.994,1.46h0c-.074.159.082.4.353.535l2.051,1c.282.137.573.116.652-.046.637-1.291-.521-3.2-2.688-4.436l.282-.581c2.707,1.513,4.182,3.886,3.422,5.5-.092.154.052.4.325.542a.955.955,0,0,0,.4.107.3.3,0,0,0,.269-.116.081.081,0,0,0,.018-.036c.983-2.051-1.1-5.11-4.656-6.851l-.056-.027c-.267-.111-.527-.082-.6.07l-.564,1.161c-.077.162.086.4.367.541,1.686.823,2.773,2.226,2.563,3.307l-1.037-.5c.083-.879-.962-1.971-2.335-2.438s-2.55-.137-2.632.741c-.067.72.63,1.61,1.7,2.167a.96.96,0,0,0,.114.065c2.8,1.372,4.549,3.735,4.044,5.472l-1.013-.493c.374-1.409-1.053-3.306-3.312-4.4-1.885-.921-2.984-2.541-2.458-3.624.079-.162-.086-.4-.367-.542l-2-.974a.849.849,0,0,0-.217-.073c-.215-.053-.4-.012-.462.105-.967,2.03,1.051,5.045,4.55,6.8.034.022.071.042.108.061.759.368,1.2,1.022.992,1.458s-1,.49-1.76.122-1.2-1.023-.992-1.46c.077-.162-.088-.4-.368-.541l-2.036-.989c-.281-.137-.573-.116-.652.045-.637,1.292.526,3.2,2.7,4.44l-.284.581c-2.713-1.512-4.194-3.889-3.431-5.508.1-.154-.052-.4-.328-.544a.888.888,0,0,0-.407-.1.3.3,0,0,0-.272.122l-.013.027c-.985,2.052,1.1,5.115,4.659,6.854h0c.266.129.544.12.64-.021a.144.144,0,0,0,.018-.037l.541-1.111a.122.122,0,0,0,.021-.045c.079-.162-.086-.4-.368-.542h0c-1.687-.823-2.776-2.228-2.565-3.309l1.037.5c-.08.878.965,1.969,2.336,2.436s2.547.134,2.627-.744c.067-.72-.63-1.607-1.7-2.162a.965.965,0,0,0-.114-.067c-2.8-1.372-4.547-3.735-4.041-5.471l1.013.492c-.379,1.411,1.05,3.309,3.31,4.4,1.891.918,3,2.542,2.468,3.628h0c-.079.16.085.4.365.539h0l2,.974c.288.137.587.12.679-.039C214.822,156.9,212.8,153.892,209.307,152.143Z" transform="translate(-200.696 -147.49)" fill="#fff"/>
      </g>
    </g>
    <g id="Group_6220" data-name="Group 6220" transform="translate(397.837 281.65)">
      <rect id="Rectangle_4751" data-name="Rectangle 4751" width="32.891" height="40.94" rx="0.604" fill="#fff" stroke="#c0ccda" stroke-width="0.6"/>
      <rect id="Rectangle_4752" data-name="Rectangle 4752" width="27.523" height="2.315" transform="translate(2.684 21.435)" fill="#c0c8d8"/>
      <rect id="Rectangle_4753" data-name="Rectangle 4753" width="27.523" height="2.315" transform="translate(2.684 26.857)" fill="#c0c8d8"/>
      <rect id="Rectangle_4754" data-name="Rectangle 4754" width="27.523" height="2.315" transform="translate(2.684 32.279)" fill="#c0c8d8"/>
      <path id="Path_14008" data-name="Path 14008" d="M287.3,245.249a3.031,3.031,0,0,0-1.58-2.594,3.062,3.062,0,0,0-1.864-4.556v-1.871h-1.969v1.755h-.647v-1.755H279.27v1.755h-.986v1.968h.986v6.43h-.986v1.968h.986V249.6h1.968v-1.249h.647V249.6h1.969v-1.252A3.3,3.3,0,0,0,287.3,245.249Zm-4.235-5.3a1.128,1.128,0,0,1,.355,2.2h-2.18v-2.2Zm.771,6.43h-2.6v-2.2h1.825a3.056,3.056,0,0,0,.621-.064h.15c.811,0,1.5.518,1.5,1.132S284.645,246.38,283.834,246.38Z" transform="translate(-266.346 -231.451)" fill="#c0c8d8"/>
    </g>
    <g id="Group_6221" data-name="Group 6221" transform="translate(43.723 158.255)">
      <g id="Head_Front_Short_2" data-name="Head Front Short 2" transform="translate(137.431)">
        <g id="Head" transform="translate(0 4.417)">
          <path id="Head-2" d="M124.338,198.057l10.244-23.85c-2.291-4.084-3.465-8.768-2.183-13.5,3.693-13.646,22.359-6.811,24.731.91s-1.559,25.352-6.647,25.646c-2.029.117-5.9-1.911-9.594-5.26l-1.032,19.111Z" transform="translate(-124.338 -152.896)" fill="#b28b67"/>
        </g>
        <path id="Hair" d="M131.122,178.529c-.242-9.049-4.629-16.048-3.019-19.754a6.724,6.724,0,0,1,5.465-3.928s3.41-7.305,13.529-4.123,15.589,8.722,11,17.64c-2.507-.495-5.355-1.994-9.845-1.267-2.137.347-3.751,4.025-3.751,4.025l-1.889-.371s-1.853-5.106-4.772-4.424-2.372,5.637-2.372,5.637l-2.338,6.961Z" transform="translate(-122.684 -149.921)" fill="#191847"/>
      </g>
      <g id="Bottom_Standing_Skinny_Jeans_Walk" data-name="Bottom Standing Skinny Jeans Walk" transform="translate(0 86.526)">
        <path id="Leg-3" d="M136.738,208.185l-48,14.116L48.581,263.556l8.71,7.226,39.008-30,50.256-2.317Z" transform="translate(-23.654 -208.185)" fill="#ccd5dd"/>
        <path id="Leg-4" d="M121.091,218.66c-10.344,23.375-24.036,36.222-24.844,41.37s-7.6,61.878-7.6,61.878L99.464,318s12.822-48.265,13.294-49.956,18.023-18.669,34.2-38.65Z" transform="translate(-4.221 -203.104)" fill="#dde3e9"/>
        <g id="Left_Shoe-2" data-name="Left Shoe-2" transform="translate(62.263 114.934)">
          <path id="Shoe-3" d="M103.692,298.694l-.211-1.16-7.321,2.531-22.016,4.01-.422-2.318s13.256-6.3,20.8-13.964l12.166-2.214,2.795,12.06Z" transform="translate(-73.722 -285.578)" fill="#191847"/>
        </g>
        <g id="Right_Shoe-2" data-name="Right Shoe-2" transform="translate(0 46.443)">
          <path id="Shoe-4" d="M54.91,260.448l.753-.906-6.644-3.983L31.8,241.271l1.5-1.813s13.351,6.1,24.069,6.961l9.518,7.9-7.443,9.894Z" transform="translate(-31.796 -239.458)" fill="#191847"/>
        </g>
      </g>
      <g id="Body_Hoodie" data-name="Body Hoodie" transform="translate(29.514 32.844)">
        <path id="Skin" d="M181.85,280.4c-2.872-2.523-3.39-6.793-5.112-10.71-1.347-3.061-3.257-2.911-5.08-2.686-1.711.209-3.347.486-4.375-1.76,3.19-1.464,9.64-3.736,11.039-7.722.93-2.655,19.172-43.434,19.172-43.434l10.759,9.38s-21.006,34.225-22.185,38.6c-.572,2.136.884,11.445,2.382,17.355.6,2.367-1.191,3.147-2.075,3A8.863,8.863,0,0,1,181.85,280.4Zm-124-77.834a.514.514,0,0,1-.278-.459c-.028-2.091,2.8-2.263,3.01-3.679s-3.395-3.37-6.894-5.082-1.647-2.629-.407-2.888a58.621,58.621,0,0,1,15.782,2.375l26.889-2.749-1.883,12.7-23.131-3.221Q59.5,203.539,57.851,202.569Z" transform="translate(-51.67 -163.282)" fill="#b28b67"/>
        <path id="Coat_Back" data-name="Coat Back" d="M66.861,208.48l-.282-10.29c11.122-2.793,35.6-3.843,35.6-3.843,15-6.959,27.869-22.926,48.642-20.837l8.659,1.12c-2.709,3.779-29.394,43.559-40.223,56.14-8.786,10.208-7.133,2.985-9.415-.331-5.447-7.912,25.791-35.143,21.351-32.248C115.346,208.521,97.152,221.02,66.861,208.48Z" transform="translate(-44.438 -171.414)" fill="#253c8e"/>
        <path id="Shirt" d="M157.231,177.116l-1.446-1.686c-.841-.979-2.159-.992-3.374-1.295l-3.949-.985c-.267-.067-4.387-1.209-4.43-1.106-11.135,26.326-33.889,40.2-45.379,57.141-1,1.472-2.756,4.47-.555,5.4l48.128,20.357a333.842,333.842,0,0,0,10.217-35.322,134.474,134.474,0,0,0,3.5-30.725c-.049-3.3.492-8.048-1.752-10.661Z" transform="translate(-29.663 -172.038)" fill="#c1cad1"/>
        <path id="Coat_Front" data-name="Coat Front" d="M153.753,263.3c1.43-7.65,8.652-25.962,7.032-32.1a190.5,190.5,0,0,0-6.331-18.969c6.052,25.855-20.512,53.348-20.457,50.048l-29.572-8.606a27.264,27.264,0,0,1,.527-4.55c1.218-6.28,3.867-12.28,6.7-17.98a212.134,212.134,0,0,1,11.53-20.013c4.054-6.325,8.327-12.507,12.737-18.587q5.039-6.946,10.321-13.71c1.408-1.8,2.847-3.594,4.276-5.379,1.64.533,2.789.48,4.111,1.831.263.267.5.563.777.814,1.139,1.022,2.556,1.051,3.971,1.193,1.653.163,3.431.3,5.061.627,1.451.291,2.914.53,4.363.829a15.751,15.751,0,0,1,7.14,2.994c4.721,3.95,4.421,9.766-4.525,16.777a7.926,7.926,0,0,1-7.871,1.194c7.268-5.7,15.712,15.624,17.576,34.464.8,8.108-13.97,29.954-18.939,34.3Z" transform="translate(-26.08 -171.354)" fill="#253c8e"/>
      </g>
    </g>
    <g id="Group_6224" data-name="Group 6224" transform="translate(487.247 194.311)">
      <g id="Group_6222" data-name="Group 6222">
        <path id="Path_14009" data-name="Path 14009" d="M331.272,200.58l27.705,26.1a2.832,2.832,0,0,0,2.36.741l34.428-5.115a2.61,2.61,0,0,0,1.986-1.487l.512-1.106-31.181-25.943L331.006,196.9l-.313.677A2.611,2.611,0,0,0,331.272,200.58Z" transform="translate(-330.451 -164.708)" fill="#fff"/>
        <path id="Path_14010" data-name="Path 14010" d="M330.825,197.684l29.134,27.441a2.677,2.677,0,0,0,2.223.7l35.9-5.334L368.007,192.16Z" transform="translate(-330.27 -165.488)" fill="#727b96"/>
        <path id="Path_14011" data-name="Path 14011" d="M335.517,198.145l23.213,21.865a2.017,2.017,0,0,0,1.681.527l28.022-3.738a.613.613,0,0,0,.339-1.053l-20.424-19.238Z" transform="translate(-327.994 -163.379)" fill="#626b82"/>
        <path id="Path_14012" data-name="Path 14012" d="M333.6,177.53l-2.765,27.607a1.482,1.482,0,0,0,1.481,1.994L369.7,205.36a2.449,2.449,0,0,0,2.174-1.555L374.64,176.2a1.48,1.48,0,0,0-1.479-1.994l-37.385,1.772A2.445,2.445,0,0,0,333.6,177.53Z" transform="translate(-330.311 -174.2)" fill="#fff"/>
        <path id="Path_14013" data-name="Path 14013" d="M334.392,177.929l-2.74,28.127a1.506,1.506,0,0,0,1.482,2.033l37.384-1.772a2.444,2.444,0,0,0,2.173-1.582l2.74-28.129a1.506,1.506,0,0,0-1.482-2.033l-37.385,1.772A2.443,2.443,0,0,0,334.392,177.929Z" transform="translate(-329.916 -174.019)" fill="#727b96"/>
        <path id="Path_14014" data-name="Path 14014" d="M335.688,178.788l-2.443,25.08a1.344,1.344,0,0,0,1.322,1.813L367.9,204.1a2.182,2.182,0,0,0,1.937-1.411l2.443-25.08a1.343,1.343,0,0,0-1.322-1.813l-33.334,1.58A2.177,2.177,0,0,0,335.688,178.788Z" transform="translate(-329.138 -173.426)" fill="#334a88"/>
        <path id="Path_14015" data-name="Path 14015" d="M335.688,178.788l-2.443,25.08a1.344,1.344,0,0,0,1.322,1.813L367.9,204.1a2.182,2.182,0,0,0,1.937-1.411l2.443-25.08a1.343,1.343,0,0,0-1.322-1.813l-33.334,1.58A2.177,2.177,0,0,0,335.688,178.788Z" transform="translate(-329.138 -173.426)" fill="#848ea5"/>
        <path id="Path_14016" data-name="Path 14016" d="M337.625,177.332l30.454-1.443a6.649,6.649,0,0,0-.273.815c-.44,1.7-.371,3.5-.732,5.224a10.813,10.813,0,0,1-5.257,7.131c-2.77,1.54-6.047,1.769-9.138,2.467s-6.35,2.153-7.648,5.045c-.922,2.057-.665,4.442-1.224,6.625a10,10,0,0,1-.8,2.039l-8.435.4a1.344,1.344,0,0,1-1.322-1.813l2.443-25.08A2.177,2.177,0,0,1,337.625,177.332Z" transform="translate(-329.138 -173.38)" fill="#8c96aa"/>
      </g>
      <g id="Group_6223" data-name="Group 6223" transform="translate(16.778 23.365)">
        <g id="Head_Front_Wavy" data-name="Head Front Wavy" transform="translate(59.186)">
          <g id="Head-5" transform="translate(0 4.125)">
            <path id="Head-6" d="M394.6,235.408l-1.086-15.746c-4.18,1.659-8,1.24-9.683.5-4.207-1.862-1.939-18.009,2.514-23.783s22.4-5.633,21.192,7.073a20.443,20.443,0,0,1-6.4,12.4l5.746,14.861Z" transform="translate(-381.603 -192.711)" fill="#b28b67"/>
          </g>
          <path id="hair-3" d="M383.622,200.348c-.068.2-.273.613.088.639.192.013.416-.4.509-.53a3.539,3.539,0,0,1,1.647-1.268,7.5,7.5,0,0,1,5.324-.457c-.487.483.073,1.986.22,2.51.312,1.121.581,2.256.885,3.38a11.157,11.157,0,0,0,1.665,3.831c.619.826,1.533,1.686,2.6,1.344,1.855-.591,2.954-3.889,5.226-2.756,1.53.763,2.326,3.98.8,5.242a4.222,4.222,0,0,1-1.289.691,3.773,3.773,0,0,0-1.25.463c-.829.71.35.774.8.636-.738,2.009-1.095,3.946.347,5.633a10,10,0,0,0,5.183,2.785,9.646,9.646,0,0,0,6.387-.5,1.339,1.339,0,0,1,1.207-.091,9.555,9.555,0,0,0,1.409.536,11.715,11.715,0,0,0,3.119.278,8,8,0,0,0,4.443-1.423,7.855,7.855,0,0,0,3.117-4.072,7.075,7.075,0,0,0-.025-3.092c-.129-.708-.588-1.767-.258-2.474.312-.665,1.123-1.007,1.675-1.363a4.8,4.8,0,0,0,1.461-1.536c2.131-3.411,1.118-7.745-.744-10.9a8.812,8.812,0,0,0-7.8-4.529,13.251,13.251,0,0,0-5.6,1.342c-1.6.737-3.5,2.043-5.268,1.634-1.628-.376-2.609-2.015-3.717-3.2a9.868,9.868,0,0,0-4.433-2.727,12.979,12.979,0,0,0-9.99,1.475,21.146,21.146,0,0,0-4.626,3.6,11.9,11.9,0,0,0-1.941,2.513,16.47,16.47,0,0,0-1.173,2.388" transform="translate(-380.681 -189.933)" fill="#191847"/>
        </g>
        <g id="Bottom_Skinny_Jeans_1" data-name="Bottom Skinny Jeans 1" transform="translate(99.972 70.534)" opacity="0.47">
          <path id="Leg" d="M410.574,259.355l46.438,15.568,54.915-7.941L510,258.38l-48.679,3.43-36.127-22.392Z" transform="translate(-408.336 -236.464)" fill="#ba8b72"/>
          <path id="Leg-2" d="M409.067,264.444c30.609,16.153,60.2,33.577,64.96,35.3s10.158,5.333,51.692,10.452l.879-7.856c-36.185-15.547-55.414-14.365-58.038-16.226s-11.327-23.5-37.1-47.588Z" transform="translate(-409.067 -236.896)" fill="#d4a181"/>
          <path id="Pant" d="M411.736,257.72c5.982,5.881,29.094,20.932,42.51,21.811,15.467,1.013,30.653-3.221,50.5-8.067l-2.972-13.274c-18.923-.408-38.126,6.794-51.189-.988-7.079-4.218-20.418-18.142-22.448-19.774Z" transform="translate(-407.772 -237.429)" fill="#69a1ac"/>
          <path id="Pant-2" d="M409.564,262.907c3.677,2.9,31.5,27.3,52.035,36.975,6.652,3.135,39.339,8.321,57.566,10.848l2.29-11.821c-18.89-5.986-44.083-13.3-46.986-16.361-17.692-18.67-29.295-34.311-45.275-45.119Z" transform="translate(-408.826 -237.429)" fill="#89c5cc"/>
          <g id="Left_Shoe" data-name="Left Shoe" transform="translate(113.617 60.107)">
            <path id="Shoe" d="M495.527,278.531l7.639,29.444-2.517,1.476a1.074,1.074,0,0,1-1.424-.312l-11.809-16.927-1.836-11.178a.537.537,0,0,1,.365-.6L493.7,277.9Z" transform="translate(-485.573 -277.903)" fill="#191847"/>
          </g>
          <g id="Right_Shoe" data-name="Right Shoe" transform="translate(100.856 18.13)">
            <path id="Shoe-2" d="M487.01,250.326l6.646,29.685-2.565,1.39a1.075,1.075,0,0,1-1.414-.359l-11.235-17.313-1.458-11.235a.537.537,0,0,1,.386-.587l7.834-2.271Z" transform="translate(-476.98 -249.637)" fill="#191847"/>
          </g>
        </g>
        <g id="Body_Pointing_Up" data-name="Body Pointing Up" transform="translate(0 10.081)">
          <path id="Skin-2" d="M359.955,219.617l18.652,8.844-4.774,10.3L355.3,223.681a51.786,51.786,0,0,1-12.813-5.9c-.79-.795-1.714-2.369,1.7-1.935s7.026.737,7.558-.41-1.473-2.648-.44-4.178a.454.454,0,0,1,.429-.2Q353.43,211.135,359.955,219.617Zm36.135,12.295-10.984-17.478q-10.721-6.389-9.323-7.6c1.4-1.207,3.126.606,4.2-.056s.348-4.213-.486-7.555.839-2.609,1.721-1.919a51.809,51.809,0,0,1,7.376,12.028l17.157,16.621Z" transform="translate(-341.749 -196.722)" fill="#b28b67"/>
          <path id="Coat_Back-2" data-name="Coat Back-2" d="M427.036,247.1c-6.635-.03-19.187.477-23.235-.356-16.126-3.316-21.914-13.1-31.779-31.746l7.165-7.5c15.079,16.009,29.054,26.65,46.457,33.144Z" transform="translate(-327.064 -191.496)" fill="#2026a2"/>
          <path id="Shirt-2" d="M399.492,209.98a32.48,32.48,0,0,1-7.306,6.742c-.89.627-1.017,5.051-1.187,6.022-1,5.741-2.112,11.272-3.567,16.83a15.911,15.911,0,0,0,3.1,13.547c1.757,1.978,4.175,3.22,6.294,4.8,5.865,4.376,9.914,11.282,15.363,16.272.841.769,11.887,9.784,11.539,10.624L436.623,253.7C412.8,236.546,417.2,215.858,399.492,209.98Z" transform="translate(-319.793 -190.291)" fill="#f2f2f2"/>
          <path id="Coat_Front-2" data-name="Coat Front-2" d="M449.5,271.9c-10.3,12.277-25.2-4.886-44.39-30.462-28.46,4.794-44.846-12.09-51.83-20.289l4.252-10c12.754,10,20.345,13.04,22.876,14.721,10.994,1.124,28.2-4.7,29.746-6.574l1.736-3.2,5.7-5.593c.858-.994,2.2,1.726,3.447,2.13,19.8,5.129,13.532,30.995,47.9,42.3Z" transform="translate(-336.155 -190.148)" fill="#1f28cf"/>
        </g>
      </g>
    </g>
    <g id="Group_6226" data-name="Group 6226" transform="translate(63.28 139.296)">
      <g id="Group_6225" data-name="Group 6225">
        <path id="Path_14017" data-name="Path 14017" d="M77.282,165.645c4.421-11.747,2.066-23.555-5.195-26.979l.009-.03-.218-.068c-.174-.077-.337-.174-.517-.242a9.891,9.891,0,0,0-1.709-.46l-.1-.031.01.019c-7.52-1.319-16.443,5.878-20.669,17.108-4.35,11.558-2.143,23.182,4.844,26.816l-.266.107,1.236.348c.037.013.07.036.107.049a9.9,9.9,0,0,0,1.718.462l.12.034.007-.018C64.172,184.039,73.064,176.852,77.282,165.645Z" transform="translate(-44.142 -136.891)" fill="#0da386"/>
        <path id="Path_14018" data-name="Path 14018" d="M75.589,165.121c-4.568,12.137-14.626,19.585-22.465,16.636S42.634,166.574,47.2,154.436,61.83,134.849,69.668,137.8,80.158,152.982,75.589,165.121Z" transform="translate(-44.965 -137.154)" fill="#0db193"/>
      </g>
      <path id="Path_14019" data-name="Path 14019" d="M70.585,151.135q-.76,1.3-1.522,2.6c-.085.146-.171.29-.266.447l-5.671-1.993-1.157,2c.509.22,1,.426,1.482.642a21.345,21.345,0,0,1,4.7,2.618,4.115,4.115,0,0,1,.74.768c.31.417.178.786-.316.959a4.709,4.709,0,0,1-1.989.131,32.4,32.4,0,0,1-6.521-1.378c-.189-.056-.26-.012-.349.147q-1.749,3.047-3.509,6.087c-.039.07-.082.135-.129.212l-4.126-1.454,3.751-6.5c-.578-.249-1.142-.481-1.7-.734a21.751,21.751,0,0,1-4.335-2.412,5.046,5.046,0,0,1-.841-.82c-.374-.465-.214-.885.364-1.05a5.657,5.657,0,0,1,2.125-.08,32.556,32.556,0,0,1,6.279,1.356c.08.024.235,0,.267-.049.373-.618.729-1.246,1.106-1.9l-5.667-1.994,1.775-3.125h.108a2.113,2.113,0,0,0,.226.11q6.743,2.375,13.484,4.746c.558.2,1.124.374,1.686.56Zm-12.919,1.893a1.039,1.039,0,0,0-.138-.064,28.8,28.8,0,0,0-6.285-1.328,4.452,4.452,0,0,0-1.212.114c-.306.065-.383.321-.2.579a2.807,2.807,0,0,0,.5.548,12.5,12.5,0,0,0,2.626,1.583A47.927,47.927,0,0,0,63.8,158.237a29.062,29.062,0,0,0,3.065.44,2.924,2.924,0,0,0,1.02-.15c.255-.067.315-.273.192-.511a1.061,1.061,0,0,0-.238-.319,10.461,10.461,0,0,0-.962-.762,24.819,24.819,0,0,0-4.045-2.052c-.339-.144-.68-.284-1.022-.425-.4.7-.795,1.356-1.161,2.027a.3.3,0,0,1-.441.166c-1.145-.411-2.294-.814-3.441-1.221-.129-.045-.252-.1-.391-.16Z" transform="translate(-43.187 -133.052)" fill="#fff"/>
    </g>
    <g id="Group_6233" data-name="Group 6233" transform="translate(430.833 243.708)">
      <g id="Group_6230" data-name="Group 6230" transform="translate(0 0.05)">
        <path id="Path_14020" data-name="Path 14020" d="M313.5,226.039c2.877-7.645,1.344-15.33-3.382-17.559l.006-.019-.143-.045c-.113-.05-.22-.114-.336-.157a6.414,6.414,0,0,0-1.112-.3l-.064-.021.006.013c-4.893-.858-10.7,3.826-13.452,11.134-2.832,7.523-1.394,15.088,3.153,17.453l-.172.071.8.226c.024.009.046.022.07.033a6.584,6.584,0,0,0,1.118.3l.079.022,0-.012C304.965,238.01,310.752,233.332,313.5,226.039Z" transform="translate(-291.929 -207.324)" fill="url(#linear-gradient-5)"/>
        <path id="Path_14021" data-name="Path 14021" d="M313.5,226.039c2.877-7.645,1.344-15.33-3.382-17.559l.006-.019-.143-.045c-.113-.05-.22-.114-.336-.157a6.414,6.414,0,0,0-1.112-.3l-.064-.021.006.013c-4.893-.858-10.7,3.826-13.452,11.134-2.832,7.523-1.394,15.088,3.153,17.453l-.172.071.8.226c.024.009.046.022.07.033a6.584,6.584,0,0,0,1.118.3l.079.022,0-.012C304.965,238.01,310.752,233.332,313.5,226.039Z" transform="translate(-291.929 -207.324)" fill="#231f20" opacity="0.39"/>
        <path id="Path_14022" data-name="Path 14022" d="M312.4,225.7c-2.973,7.9-9.519,12.746-14.62,10.826s-6.828-9.88-3.854-17.781,9.519-12.748,14.62-10.826S315.37,217.8,312.4,225.7Z" transform="translate(-292.464 -207.496)" fill="url(#linear-gradient-6)"/>
        <g id="Group_6229" data-name="Group 6229" transform="translate(4.775 8.186)">
          <g id="Group_6227" data-name="Group 6227">
            <path id="Path_14023" data-name="Path 14023" d="M302.252,226.412l-6.22-2.34c-.359-.137-.462-.75-.227-1.371s.714-1.016,1.074-.881l6.219,2.34c.244.092.563-.11.78-.49l2.8-4.914a1.586,1.586,0,0,0,.214-.848.55.55,0,0,0-.291-.53l-5.563-2.094c-.359-.135-.462-.748-.229-1.371s.716-1.016,1.075-.879l5.565,2.094a1.884,1.884,0,0,1,.993,1.806,5.432,5.432,0,0,1-.732,2.891l-2.8,4.916C304.172,226.037,303.079,226.723,302.252,226.412Z" transform="translate(-295.679 -213.008)" fill="#efcbf1"/>
          </g>
          <g id="Group_6228" data-name="Group 6228" transform="translate(0.658 3.698)">
            <path id="Path_14024" data-name="Path 14024" d="M301.084,219.509l-4.608-1.735c-.359-.135-.462-.748-.229-1.369s.716-1.016,1.075-.881l4.608,1.735c.361.135.462.748.229,1.371S301.443,219.644,301.084,219.509Z" transform="translate(-296.122 -215.498)" fill="#efcbf1"/>
          </g>
        </g>
      </g>
      <g id="Group_6232" data-name="Group 6232" transform="translate(0.167)">
        <g id="Group_6231" data-name="Group 6231">
          <path id="Path_14025" data-name="Path 14025" d="M313.61,226.006c2.878-7.647,1.344-15.332-3.382-17.561l.006-.018-.141-.046c-.114-.051-.22-.113-.337-.157a6.375,6.375,0,0,0-1.112-.3l-.064-.021.006.013c-4.893-.86-10.7,3.826-13.452,11.134-2.831,7.522-1.395,15.088,3.153,17.453l-.172.07.8.226c.024.01.044.024.068.033a6.486,6.486,0,0,0,1.118.3l.079.021,0-.01C305.078,237.976,310.865,233.3,313.61,226.006Z" transform="translate(-292.041 -207.29)" fill="#0da386"/>
          <path id="Path_14026" data-name="Path 14026" d="M312.508,225.663c-2.973,7.9-9.519,12.748-14.622,10.828s-6.827-9.882-3.854-17.781,9.519-12.748,14.622-10.828S315.481,217.764,312.508,225.663Z" transform="translate(-292.577 -207.462)" fill="#0db193"/>
        </g>
        <path id="Path_14027" data-name="Path 14027" d="M309.251,216.562q-.495.847-.991,1.693c-.055.094-.111.187-.174.291l-3.69-1.3-.753,1.3c.331.144.649.278.964.417a13.914,13.914,0,0,1,3.061,1.7,2.686,2.686,0,0,1,.481.5c.2.272.116.512-.2.625a3.053,3.053,0,0,1-1.295.085,21.026,21.026,0,0,1-4.244-.9.161.161,0,0,0-.227.1q-1.138,1.985-2.284,3.964c-.025.045-.053.088-.083.137l-2.685-.945L299.567,220c-.377-.163-.744-.313-1.106-.478a14.052,14.052,0,0,1-2.82-1.57,3.257,3.257,0,0,1-.547-.533c-.245-.3-.14-.576.236-.683a3.7,3.7,0,0,1,1.383-.053,21.248,21.248,0,0,1,4.087.884c.052.015.153,0,.174-.033.242-.4.475-.811.72-1.237L298,215l1.155-2.033h.07a1.357,1.357,0,0,0,.149.071q4.386,1.546,8.777,3.089c.362.128.731.244,1.1.365Zm-8.409,1.231a.633.633,0,0,0-.089-.042,18.716,18.716,0,0,0-4.09-.864,2.894,2.894,0,0,0-.79.074c-.2.043-.248.209-.132.377a1.781,1.781,0,0,0,.328.356,8.038,8.038,0,0,0,1.709,1.031,31.232,31.232,0,0,0,7.056,2.458,19.1,19.1,0,0,0,2,.285,1.91,1.91,0,0,0,.664-.1c.165-.045.2-.178.125-.334a.672.672,0,0,0-.156-.206,6.638,6.638,0,0,0-.625-.5A16.3,16.3,0,0,0,304.205,219c-.22-.094-.443-.184-.665-.276-.261.454-.517.882-.756,1.32a.2.2,0,0,1-.287.108c-.746-.269-1.494-.53-2.24-.794-.085-.03-.165-.068-.254-.105Z" transform="translate(-291.42 -204.792)" fill="#fff"/>
      </g>
    </g>
    <g id="Group_6237" data-name="Group 6237" transform="translate(299.148 217.509)">
      <g id="Group_6234" data-name="Group 6234" transform="translate(27.656)">
        <g id="Bottom_Standing_Skinny_Jeans" data-name="Bottom Standing Skinny Jeans" transform="translate(21.242 107.304)">
          <path id="Leg-2-2" data-name="Leg" d="M241.435,262.351l.453,72.51L261.5,392.489l12.224-.088L263,337.358l12.583-75.251Z" transform="translate(-234.43 -262.061)" fill="#191847"/>
          <path id="Leg-2-3" data-name="Leg-2" d="M243.655,262.367c-3.493,42.99-8.763,60.892-6.306,66.451s4.881,10.979,59.277,34.595l2.568-12.715c-20.8-15.4-41.52-23.29-41.539-25.98-.027-3.817,13.924-27.495,26.357-62.642Z" transform="translate(-236.718 -262.076)" fill="#2f3676"/>
          <g id="Left_Shoe-2-2" data-name="Left Shoe" transform="translate(58.548 87.463)">
            <path id="Shoe-2-2" data-name="Shoe" d="M290.684,329.182l-1.243-.25-.379,8.325-4.742,23.605-2.484-.5s-1.035-15.76-5.694-26.348l2.62-13.045,13.17,2Z" transform="translate(-276.142 -320.971)" fill="#191847"/>
          </g>
          <g id="Right_Shoe-2-2" data-name="Right Shoe" transform="translate(15.409 122.067)">
            <path id="Shoe-2-3" data-name="Shoe-2" d="M272.711,357.954l-.852-.937-5.242,6.478L248.8,379.688l-1.7-1.876s8.514-13.3,11.042-24.591l9.846-8.949,9.418,9.421Z" transform="translate(-247.094 -344.272)" fill="#191847"/>
          </g>
        </g>
        <g id="Head_Front_Short_Beard" data-name="Head Front Short Beard" transform="translate(17.685)">
          <g id="Head-3" transform="translate(0 0.966)">
            <path id="Head-4" d="M248.212,239.662l4.228-19.849c-3.52,3.618-7.307,5.914-9.366,5.922-5.161.025-10.25-17.546-8.34-25.5s20.344-16.045,24.94-2.483c1.595,4.7.705,9.513-1.351,13.786l5.383,24.057Z" transform="translate(-234.323 -190.471)" fill="#b28b67"/>
          </g>
          <path id="Hair-2" d="M241.363,226.133c-2.516.419-2.51-2.383-2.75-3.831-.062-.38.434-.463,1-.557.726-.119,1.562-.257,1.423-1.092-.245-1.478-3.714-1.844-4.553-2.685-1.019-1.017-1.555-2.529-.31-2.736,1.708-.285,5.422,1.637,9.314.989,3.873-.645,2.709-13.3,2.7-13.44a13.01,13.01,0,0,0-5.134-3.759c-6.928,1.265-7.948.156-8.648-4.041.989-.989,4.723-3,9.093-4.12a11.622,11.622,0,0,1,7.612-.7,9.891,9.891,0,0,1,8.158,5.318c5.55,6.723,3.569,15.013-.4,18.393-1.406-1.2-2.654-2.373-3.782-3.511a4.006,4.006,0,0,0-3.888-6.318,4.137,4.137,0,0,0-.469.107c.355,2.744,1.487,12.041.959,15.422C251.057,223.565,243.909,225.706,241.363,226.133Z" transform="translate(-234.287 -189.821)" fill="#191847"/>
        </g>
        <g id="Body_Lab_Coat" data-name="Body Lab Coat" transform="translate(0 33.502)">
          <path id="Path_14028" data-name="Path 14028" d="M232.812,263.651l10.461-8,8.166-17.588-10.979-2.88-6.785,12.668-11.261,10.4C225.389,260.2,231.106,262.516,232.812,263.651Z" transform="translate(-222.414 -201.321)" fill="#b28b67"/>
          <path id="Path_14029" data-name="Path 14029" d="M252.946,260.643a45.845,45.845,0,0,0,4.959-8.579c2.862-6.591.235-28.118,0-36L249.256,213c-4.559,11.382-9.007,23.163-16.064,33.934C239.619,251.733,246.259,256.222,252.946,260.643Z" transform="translate(-217.186 -212.077)" fill="#c5cfd6"/>
          <path id="Path_14030" data-name="Path 14030" d="M240.928,281.486q6.041,4.342,12.12,8.619c16.462,5.03,28.084-2.881,28.084-2.881-2.681-31.9-8.921-54.057-22.494-73.367,0,0-7.577,1.069-10.608-.457-5.067,18.341-8.45,39.7-9.507,65.4a4.909,4.909,0,0,0-.236.768C239.165,280.2,240.043,280.85,240.928,281.486Z" transform="translate(-214.715 -211.885)" fill="#ff276a"/>
          <path id="Coat_Front-2-2" data-name="Coat Front" d="M243.359,297.347c12.825-34.318,9.218-76.866,10.534-84.613h5.658l-.019-.353s.184.117.535.353h.52l.218.506c2.278.653,20.947,5.419,22.78,37.251l-13.725,1.123c-.8-2.48-2.84-7.976-2.84-7.976,8.214,18.023,13.333,25.843,14.8,56.44Z" transform="translate(-212.254 -212.38)" fill="#dde3e9"/>
        </g>
      </g>
      <g id="Group_6235" data-name="Group 6235" transform="translate(7.509 94.113)">
        <path id="Path_14031" data-name="Path 14031" d="M250.932,293.761a2.362,2.362,0,0,0,2.128.083L278.2,282.351a3.667,3.667,0,0,0,.073-6.393l-36.019-20.819a7.719,7.719,0,0,0-7.807.048l-25.6,13.86v.673a1.151,1.151,0,0,0,.593,1.007Z" transform="translate(-208.847 -252.753)" fill="#55617f"/>
        <path id="Path_14032" data-name="Path 14032" d="M250.932,292.853a2.358,2.358,0,0,0,2.128.082L278.2,281.443a3.669,3.669,0,0,0,.073-6.395l-36.019-20.819a7.723,7.723,0,0,0-7.807.048l-25.6,15.21Z" transform="translate(-208.847 -253.194)" fill="#727b96"/>
        <path id="Path_14033" data-name="Path 14033" d="M248.234,290.756,271.1,280.564a3.166,3.166,0,0,0,.062-5.517l-36.534-21.119-25.442,15.12Z" transform="translate(-208.682 -252.837)" fill="#626b82"/>
      </g>
      <g id="Group_6236" data-name="Group 6236" transform="translate(0 75.135)">
        <path id="Path_14034" data-name="Path 14034" d="M204.149,240.669l.591-.172a2.124,2.124,0,0,1,1.642.2l43.3,24.784a4.125,4.125,0,0,1,1.859,3.2l3.906,29.459a.852.852,0,0,1-.365.7l-.655.454-44.773-25.126c-1.017-.582-1.595-2.505-1.595-3.678Z" transform="translate(-203.617 -240.414)" fill="#55617f"/>
        <path id="Path_14035" data-name="Path 14035" d="M203.791,241.815c0-1.173.83-1.653,1.844-1.066l43.686,25.222a4.128,4.128,0,0,1,1.858,3.2l4.1,28.821c.006,1.172-.82,1.654-1.837,1.072l-44.15-24.406c-1.017-.582-1.595-2.507-1.595-3.679Z" transform="translate(-203.791 -240.373)" fill="#727b96"/>
        <path id="Path_14036" data-name="Path 14036" d="M219.312,258.806a8.162,8.162,0,0,1,4.374,4.988c.61,2.121-.356,3.343-2.147,2.716a8.206,8.206,0,0,1-4.374-4.99C216.551,259.4,217.518,258.183,219.312,258.806Z" transform="translate(-197.394 -231.572)" fill="#bdc6db"/>
      </g>
      <path id="Path_14037" data-name="Path 14037" d="M239.2,275.554a3.444,3.444,0,0,1-.024-.973c2.96.3,8.648,1.4,11.379-.912,1.155-.979,14.11-9.023,22.7-17.121L271.9,239.166l11.775-1.123s4.342,21.954.067,24.517c-9.332,5.594-27.585,15.905-29.461,17.751-1.335,1.314-4.262,8.747-5.7,13.706-.576,1.991-2.223,1.792-2.8,1.3-4.725-3.968-2.173-8.453-1.592-13.435.327-2.795-1.112-3.512-2.535-4.128C240.541,277.277,239.442,276.855,239.2,275.554Z" transform="translate(-186.636 -166.43)" fill="#b28b67"/>
    </g>
  </g>
</svg>
