<svg xmlns="http://www.w3.org/2000/svg" xmlns:xlink="http://www.w3.org/1999/xlink" width="1929" height="393" viewBox="0 0 1929 393"><defs><style>.a{fill:#fff;}.b{clip-path:url(#a);}.c{opacity:0.599;}.d,.e{fill:#e5e9f2;}.d{fill-rule:evenodd;}</style><clipPath id="a"><rect class="a" width="1929" height="393" transform="translate(-9 2165)"/></clipPath></defs><g class="b" transform="translate(9 -2165)"><g class="c" transform="translate(376.52 1644.75)"><path class="d" d="M1554.67,1201.34a2.717,2.717,0,0,1,0,5.428H1538.1a2.717,2.717,0,0,1,0-5.428h16.571Z" transform="translate(-651.527 -323.345)"/><path class="d" d="M1562.242,1214.969a2.715,2.715,0,0,1,0,5.426h-16.571a2.715,2.715,0,0,1,0-5.426h16.571Z" transform="translate(-654.956 -329.517)"/><path class="d" d="M1569.818,1228.806a2.715,2.715,0,0,1,0,5.425h-16.573a2.715,2.715,0,0,1,0-5.425h16.573Z" transform="translate(-658.386 -335.783)"/><path class="d" d="M1113.184,1036.567a2.715,2.715,0,0,1,0,5.426H947.454a2.715,2.715,0,0,1,0-5.426h165.73Z" transform="translate(-384.057 -248.729)"/><path class="d" d="M1254.633,1064.033a2.715,2.715,0,0,1,0,5.425h-49.718a2.715,2.715,0,0,1,0-5.425h49.718Z" transform="translate(-500.647 -261.167)"/><path class="d" d="M1262.2,1077.652a2.717,2.717,0,0,1,0,5.429h-49.719a2.717,2.717,0,0,1,0-5.429H1262.2Z" transform="translate(-504.075 -267.334)"/><path class="d" d="M1269.778,1091.493a2.715,2.715,0,0,1,0,5.426h-49.719a2.715,2.715,0,0,1,0-5.426h49.719Z" transform="translate(-507.505 -273.602)"/><path class="d" d="M1269.062,1105.12a2.715,2.715,0,0,1,0,5.425h-41.431a2.715,2.715,0,0,1,0-5.425h41.431Z" transform="translate(-510.933 -279.773)"/><path class="d" d="M1260.063,1118.954a2.715,2.715,0,0,1,0,5.425H1235.2a2.715,2.715,0,0,1,0-5.425h24.859Z" transform="translate(-514.363 -286.037)"/><path class="d" d="M1189.087,1256.271a2.715,2.715,0,0,1,0,5.425h-24.86a2.715,2.715,0,0,1,0-5.425h24.86Z" transform="translate(-482.221 -348.22)"/><path class="d" d="M1479.514,981.638a2.716,2.716,0,0,1,0,5.426H1280.639a2.716,2.716,0,0,1,0-5.426h198.875Z" transform="translate(-534.939 -223.854)"/><path class="d" d="M1422.507,995.266a2.715,2.715,0,0,1,0,5.426H1182.2a2.715,2.715,0,0,1,0-5.426h240.308Z" transform="translate(-490.36 -230.026)"/><path class="d" d="M1431.506,1009.1a2.716,2.716,0,0,1,0,5.428h-256.88a2.716,2.716,0,0,1,0-5.428h256.88Z" transform="translate(-486.931 -236.291)"/><path class="d" d="M1439.08,1022.728a2.716,2.716,0,0,1,0,5.427H1182.2a2.716,2.716,0,0,1,0-5.427H1439.08Z" transform="translate(-490.36 -242.462)"/><path class="d" d="M1471.943,940.336a2.718,2.718,0,0,1,0,5.43H1273.067a2.718,2.718,0,0,1,0-5.43h198.876Z" transform="translate(-531.51 -205.151)"/><path class="d" d="M1462.944,954.177a2.715,2.715,0,0,1,0,5.425H1280.639a2.715,2.715,0,0,1,0-5.425h182.306Z" transform="translate(-534.939 -211.419)"/><path class="d" d="M1463.658,967.8a2.717,2.717,0,0,1,0,5.428H1273.067a2.717,2.717,0,0,1,0-5.428h190.591Z" transform="translate(-531.51 -217.588)"/><path class="d" d="M1194.056,981.638a2.716,2.716,0,0,1,0,5.426h-49.719a2.716,2.716,0,0,1,0-5.426h49.719Z" transform="translate(-473.215 -223.854)"/><path class="d" d="M1194.769,967.8a2.716,2.716,0,0,1,0,5.428h-58a2.717,2.717,0,0,1,0-5.428h58Z" transform="translate(-469.785 -217.588)"/><path class="d" d="M1176.057,954.177a2.715,2.715,0,0,1,0,5.425H1159.48a2.715,2.715,0,0,1,0-5.425h16.576Z" transform="translate(-480.074 -211.419)"/><path class="d" d="M1236.632,954.177a2.715,2.715,0,0,1,0,5.425h-16.574a2.715,2.715,0,0,1,0-5.425h16.574Z" transform="translate(-507.505 -211.419)"/><path class="d" d="M1220.774,940.336a2.718,2.718,0,0,1,0,5.43h-8.287a2.718,2.718,0,0,1,0-5.43h8.287Z" transform="translate(-504.075 -205.151)"/><path class="d" d="M997.174,1009.1a2.717,2.717,0,0,1,0,5.428h-49.72a2.716,2.716,0,0,1,0-5.428h49.72Z" transform="translate(-384.057 -236.291)"/><path class="d" d="M1351.354,912.875a2.715,2.715,0,0,1,0,5.426H970.172a2.716,2.716,0,0,1,0-5.426h381.183Z" transform="translate(-394.347 -192.715)"/><path class="d" d="M1075.756,926.717a2.715,2.715,0,0,1,0,5.425H992.891a2.715,2.715,0,0,1,0-5.425h82.865Z" transform="translate(-404.634 -198.984)"/><path class="d" d="M1081.9,940.336a2.718,2.718,0,0,1,0,5.43H1015.6a2.718,2.718,0,0,1,0-5.43H1081.9Z" transform="translate(-414.919 -205.151)"/><path class="d" d="M1048.038,954.177a2.715,2.715,0,0,1,0,5.425h-24.86a2.715,2.715,0,0,1,0-5.425h24.86Z" transform="translate(-418.348 -211.419)"/><path class="d" d="M971.6,940.336a2.718,2.718,0,0,1,0,5.43H955.028a2.718,2.718,0,0,1,0-5.43H971.6Z" transform="translate(-387.488 -205.151)"/><path class="d" d="M965.456,954.177a2.715,2.715,0,0,1,0,5.425H932.311a2.715,2.715,0,0,1,0-5.425h33.146Z" transform="translate(-377.2 -211.419)"/><path class="d" d="M964.741,967.8a2.716,2.716,0,0,1,0,5.428H939.882a2.717,2.717,0,0,1,0-5.428h24.859Z" transform="translate(-380.629 -217.588)"/><path class="d" d="M964.027,981.638a2.716,2.716,0,0,1,0,5.426H947.454a2.716,2.716,0,0,1,0-5.426h16.573Z" transform="translate(-384.057 -223.854)"/><path class="d" d="M1751.551,899.251a2.715,2.715,0,0,1,0,5.426h-16.569a2.715,2.715,0,0,1,0-5.426h16.569Z" transform="translate(-740.685 -186.546)"/><path class="d" d="M1322.638,844.323a2.715,2.715,0,0,1,0,5.425H1098.9a2.715,2.715,0,0,1,0-5.425h223.736Z" transform="translate(-452.64 -161.672)"/><path class="d" d="M1308.208,857.949a2.715,2.715,0,0,1,0,5.426H1076.185a2.715,2.715,0,0,1,0-5.426h232.023Z" transform="translate(-442.353 -167.843)"/><path class="d" d="M1396.071,871.786a2.716,2.716,0,0,1,0,5.427H1023.177a2.716,2.716,0,0,1,0-5.427h372.894Z" transform="translate(-418.348 -174.109)"/><path class="d" d="M1374.784,885.414a2.715,2.715,0,0,1,0,5.426H985.317a2.715,2.715,0,0,1,0-5.426h389.467Z" transform="translate(-401.204 -180.28)"/><path class="d" d="M1389.214,899.251a2.715,2.715,0,0,1,0,5.426h-381.18a2.715,2.715,0,0,1,0-5.426h381.18Z" transform="translate(-411.491 -186.546)"/><path class="d" d="M1414.5,803.019a2.716,2.716,0,0,1,0,5.427H1091.329a2.716,2.716,0,0,1,0-5.427H1414.5Z" transform="translate(-449.21 -142.968)"/><path class="d" d="M1445.509,816.86a2.716,2.716,0,0,1,0,5.427H1114.048a2.716,2.716,0,0,1,0-5.427h331.461Z" transform="translate(-459.5 -149.236)"/><path class="d" d="M1323.351,830.484a2.717,2.717,0,0,1,0,5.428H1091.329a2.716,2.716,0,0,1,0-5.428h232.022Z" transform="translate(-449.21 -155.405)"/><path class="d" d="M1653.568,830.484a2.716,2.716,0,0,1,0,5.428h-107.9a2.716,2.716,0,0,1,0-5.428h107.9Z" transform="translate(-654.956 -155.405)"/><path class="d" d="M1652.684,844.323a2.715,2.715,0,0,1,0,5.425h-99.44a2.715,2.715,0,0,1,0-5.425h99.44Z" transform="translate(-658.386 -161.672)"/><path class="d" d="M1621.679,857.949a2.715,2.715,0,0,1,0,5.426h-91.151a2.715,2.715,0,0,1,0-5.426h91.151Z" transform="translate(-648.099 -167.843)"/><path class="d" d="M963.315,830.484a2.717,2.717,0,0,1,0,5.428h-8.288a2.717,2.717,0,0,1,0-5.428h8.288Z" transform="translate(-387.488 -155.405)"/><path class="d" d="M970.886,844.323a2.715,2.715,0,0,1,0,5.425H962.6a2.715,2.715,0,0,1,0-5.425h8.287Z" transform="translate(-390.916 -161.672)"/><path class="d" d="M1039.751,789.4a2.715,2.715,0,0,1,0,5.426h-16.573a2.715,2.715,0,0,1,0-5.426h16.573Z" transform="translate(-418.348 -136.8)"/><path class="d" d="M902.735,775.558a2.715,2.715,0,0,1,0,5.426h-8.287a2.715,2.715,0,0,1,0-5.426h8.287Z" transform="translate(-360.054 -130.532)"/><path class="d" d="M895.163,761.934a2.716,2.716,0,0,1,0,5.427h-8.288a2.716,2.716,0,0,1,0-5.427h8.288Z" transform="translate(-356.624 -124.363)"/><path class="d" d="M904.163,748.1a2.715,2.715,0,0,1,0,5.426H879.3a2.715,2.715,0,0,1,0-5.426h24.86Z" transform="translate(-353.195 -118.097)"/><path class="d" d="M1107.189,707.009a2.715,2.715,0,0,1,0,5.425H1098.9a2.715,2.715,0,0,1,0-5.425h8.287Z" transform="translate(-452.64 -99.49)"/><path class="d" d="M1117.617,720.633a2.715,2.715,0,0,1,0,5.425h-41.432a2.715,2.715,0,0,1,0-5.425h41.432Z" transform="translate(-442.353 -105.66)"/><path class="d" d="M1118.333,734.472a2.716,2.716,0,0,1,0,5.427h-49.719a2.716,2.716,0,0,1,0-5.427h49.719Z" transform="translate(-438.925 -111.927)"/><path class="d" d="M1103.9,748.1a2.715,2.715,0,0,1,0,5.426h-58a2.715,2.715,0,0,1,0-5.426h58Z" transform="translate(-428.637 -118.097)"/><path class="d" d="M1130.622,761.934a2.716,2.716,0,0,1,0,5.427h-16.573a2.716,2.716,0,0,1,0-5.427h16.573Z" transform="translate(-459.5 -124.363)"/><path class="d" d="M1123.049,775.558a2.715,2.715,0,0,1,0,5.426h-16.572a2.715,2.715,0,0,1,0-5.426h16.572Z" transform="translate(-456.07 -130.532)"/><path class="d" d="M1061.755,761.934a2.716,2.716,0,0,1,0,5.427h-8.287a2.716,2.716,0,0,1,0-5.427h8.287Z" transform="translate(-432.065 -124.363)"/><path class="d" d="M1055.61,775.558a2.715,2.715,0,0,1,0,5.426h-24.859a2.715,2.715,0,0,1,0-5.426h24.859Z" transform="translate(-421.778 -130.532)"/><path class="d" d="M1455.653,748.1a2.715,2.715,0,0,1,0,5.426H1182.2a2.715,2.715,0,0,1,0-5.426h273.454Z" transform="translate(-490.36 -118.097)"/><path class="d" d="M1448.081,761.934a2.716,2.716,0,0,1,0,5.427H1174.626a2.716,2.716,0,0,1,0-5.427h273.455Z" transform="translate(-486.931 -124.363)"/><path class="d" d="M1440.509,775.558a2.715,2.715,0,0,1,0,5.426H1167.052a2.715,2.715,0,0,1,0-5.426h273.457Z" transform="translate(-483.502 -130.532)"/><path class="d" d="M1448.081,789.4a2.715,2.715,0,0,1,0,5.426H1174.626a2.715,2.715,0,0,1,0-5.426h273.455Z" transform="translate(-486.931 -136.8)"/><path class="d" d="M1463.225,734.472a2.716,2.716,0,0,1,0,5.427H1189.772a2.716,2.716,0,0,1,0-5.427h273.453Z" transform="translate(-493.789 -111.927)"/><path class="d" d="M1515.52,707.009a2.715,2.715,0,0,1,0,5.425H1250.35a2.715,2.715,0,0,1,0-5.425h265.17Z" transform="translate(-521.223 -99.49)"/><path class="d" d="M1480.512,720.633a2.715,2.715,0,0,1,0,5.425H1182.2a2.715,2.715,0,0,1,0-5.425h298.313Z" transform="translate(-490.36 -105.66)"/><path class="d" d="M1788.7,844.323a2.715,2.715,0,0,1,0,5.425h-8.288a2.715,2.715,0,0,1,0-5.425h8.288Z" transform="translate(-761.257 -161.672)"/><path class="d" d="M1781.843,734.472a2.716,2.716,0,0,1,0,5.427h-16.575a2.716,2.716,0,0,1,0-5.427h16.575Z" transform="translate(-754.401 -111.927)"/><path class="d" d="M1781.129,748.1a2.715,2.715,0,0,1,0,5.426h-8.288a2.715,2.715,0,0,1,0-5.426h8.288Z" transform="translate(-757.829 -118.097)"/><path class="d" d="M1789.416,775.558a2.715,2.715,0,0,1,0,5.426h-16.575a2.715,2.715,0,0,1,0-5.426h16.575Z" transform="translate(-757.829 -130.532)"/><path class="d" d="M1790.131,761.934a2.716,2.716,0,0,1,0,5.427h-24.863a2.716,2.716,0,0,1,0-5.427h24.863Z" transform="translate(-754.401 -124.363)"/><path class="d" d="M1796.275,693.172a2.715,2.715,0,0,1,0,5.426h-8.287a2.715,2.715,0,0,1,0-5.426h8.287Z" transform="translate(-764.688 -93.224)"/><path class="d" d="M1565.667,693.172a2.715,2.715,0,0,1,0,5.426H1333.647a2.715,2.715,0,0,1,0-5.426h232.019Z" transform="translate(-558.942 -93.224)"/><path class="d" d="M1489.379,610.782a2.716,2.716,0,0,1,0,5.426h-49.719a2.716,2.716,0,0,1,0-5.426h49.719Z" transform="translate(-606.95 -55.915)"/><path class="d" d="M1604.958,624.622a2.716,2.716,0,0,1,0,5.427h-248.6a2.716,2.716,0,0,1,0-5.427h248.6Z" transform="translate(-569.229 -62.182)"/><path class="d" d="M1598.813,638.242a2.716,2.716,0,0,1,0,5.427H1333.647a2.716,2.716,0,0,1,0-5.427h265.165Z" transform="translate(-558.942 -68.35)"/><path class="d" d="M1587.24,652.085a2.715,2.715,0,0,1,0,5.426h-306.6a2.715,2.715,0,0,1,0-5.426h306.6Z" transform="translate(-534.939 -74.618)"/><path class="d" d="M1579.668,665.705a2.717,2.717,0,0,1,0,5.429h-306.6a2.717,2.717,0,0,1,0-5.429h306.6Z" transform="translate(-531.51 -80.786)"/><path class="d" d="M1591.242,679.546a2.716,2.716,0,0,1,0,5.426H1326.073a2.716,2.716,0,0,1,0-5.426h265.169Z" transform="translate(-555.512 -87.054)"/><path class="d" d="M1717.544,597.157a2.716,2.716,0,0,1,0,5.427H1568.386a2.716,2.716,0,0,1,0-5.427h149.158Z" transform="translate(-665.243 -49.744)"/><path class="d" d="M1786.841,583.32a2.715,2.715,0,0,1,0,5.426h-74.581a2.715,2.715,0,0,1,0-5.426h74.581Z" transform="translate(-730.396 -43.478)"/><path class="d" d="M1792.986,569.694a2.716,2.716,0,0,1,0,5.427h-58a2.716,2.716,0,0,1,0-5.427h58Z" transform="translate(-740.685 -37.308)"/><path class="d" d="M1775.7,555.855a2.716,2.716,0,0,1,0,5.427h-33.147a2.716,2.716,0,0,1,0-5.427H1775.7Z" transform="translate(-744.113 -31.041)"/><path class="d" d="M1606.967,569.694a2.717,2.717,0,0,1,0,5.428h-8.288a2.717,2.717,0,0,1,0-5.428h8.288Z" transform="translate(-678.961 -37.308)"/><path class="d" d="M1607.678,583.32a2.715,2.715,0,0,1,0,5.426H1591.1a2.715,2.715,0,0,1,0-5.426h16.575Z" transform="translate(-675.531 -43.478)"/><path class="d" d="M1381.937,610.782a2.716,2.716,0,0,1,0,5.426H1348.79a2.716,2.716,0,0,1,0-5.426h33.147Z" transform="translate(-565.8 -55.915)"/><path class="d" d="M1470.661,597.157a2.716,2.716,0,0,1,0,5.427h-8.287a2.716,2.716,0,0,1,0-5.427h8.287Z" transform="translate(-617.235 -49.744)"/><path class="d" d="M1516.1,597.157a2.716,2.716,0,0,1,0,5.427h-8.288a2.716,2.716,0,0,1,0-5.427h8.288Z" transform="translate(-637.81 -49.744)"/><path class="d" d="M1569.818,514.769a2.716,2.716,0,0,1,0,5.426h-16.573a2.716,2.716,0,0,1,0-5.426h16.573Z" transform="translate(-658.386 -12.436)"/><path class="d" d="M1538.814,528.392a2.715,2.715,0,0,1,0,5.426h-8.287a2.715,2.715,0,0,1,0-5.426h8.287Z" transform="translate(-648.099 -18.605)"/><path class="d" d="M1539.526,542.231a2.715,2.715,0,0,1,0,5.426h-16.571a2.715,2.715,0,0,1,0-5.426h16.571Z" transform="translate(-644.668 -24.872)"/><path class="d" d="M1235.916,610.782a2.716,2.716,0,0,1,0,5.426h-8.285a2.715,2.715,0,0,1,0-5.426h8.285Z" transform="translate(-510.933 -55.915)"/><path class="d" d="M1228.346,624.622a2.716,2.716,0,0,1,0,5.427h-8.288a2.716,2.716,0,0,1,0-5.427h8.288Z" transform="translate(-507.505 -62.182)"/><path class="d" d="M1220.774,638.242a2.716,2.716,0,0,1,0,5.427h-8.287a2.716,2.716,0,0,1,0-5.427h8.287Z" transform="translate(-504.075 -68.35)"/><path class="d" d="M1220.774,665.705a2.717,2.717,0,0,1,0,5.429h-8.287a2.717,2.717,0,0,1,0-5.429h8.287Z" transform="translate(-504.075 -80.786)"/><path class="d" d="M1397.08,583.32a2.715,2.715,0,0,1,0,5.426h-33.146a2.715,2.715,0,0,1,0-5.426h33.146Z" transform="translate(-572.658 -43.478)"/><path class="d" d="M1404.652,569.694a2.717,2.717,0,0,1,0,5.428h-33.146a2.717,2.717,0,0,1,0-5.428h33.146Z" transform="translate(-576.087 -37.308)"/><path class="d" d="M1327.5,514.769a2.716,2.716,0,0,1,0,5.426h-16.575a2.716,2.716,0,0,1,0-5.426H1327.5Z" transform="translate(-548.654 -12.436)"/><path class="d" d="M1343.359,528.392a2.715,2.715,0,0,1,0,5.426H1318.5a2.715,2.715,0,0,1,0-5.426h24.859Z" transform="translate(-552.083 -18.605)"/><path class="d" d="M1176.769,555.855a2.716,2.716,0,0,1,0,5.427h-24.86a2.716,2.716,0,0,1,0-5.427h24.86Z" transform="translate(-476.645 -31.041)"/><path class="d" d="M1190.484,528.392a2.715,2.715,0,0,1,0,5.426H1182.2a2.715,2.715,0,0,1,0-5.426h8.285Z" transform="translate(-490.36 -18.605)"/><path class="d" d="M1069.326,555.855a2.716,2.716,0,0,1,0,5.427h-8.286a2.716,2.716,0,0,1,0-5.427h8.286Z" transform="translate(-435.494 -31.041)"/><path class="d" d="M1061.755,597.157a2.716,2.716,0,0,1,0,5.427h-8.287a2.716,2.716,0,0,1,0-5.427h8.287Z" transform="translate(-432.065 -49.744)"/><path class="d" d="M1054.183,610.782a2.716,2.716,0,0,1,0,5.426H1045.9a2.716,2.716,0,0,1,0-5.426h8.286Z" transform="translate(-428.637 -55.915)"/><path class="d" d="M1047.324,583.32a2.715,2.715,0,0,1,0,5.426h-16.573a2.715,2.715,0,0,1,0-5.426h16.573Z" transform="translate(-421.778 -43.478)"/><path class="d" d="M663.991,1393.585a2.716,2.716,0,0,1,0,5.427H614.273a2.716,2.716,0,0,1,0-5.427h49.718Z" transform="translate(-233.178 -410.402)"/><path class="d" d="M664.7,1407.211a2.715,2.715,0,0,1,0,5.426h-58a2.715,2.715,0,0,1,0-5.426h58Z" transform="translate(-229.747 -416.573)"/><path class="d" d="M663.991,1421.048a2.716,2.716,0,0,1,0,5.427H614.273a2.716,2.716,0,0,1,0-5.427h49.718Z" transform="translate(-233.178 -422.839)"/><path class="d" d="M639.843,1434.67a2.716,2.716,0,0,1,0,5.427H606.7a2.716,2.716,0,0,1,0-5.427h33.142Z" transform="translate(-229.747 -429.007)"/><path class="d" d="M640.56,1448.513a2.716,2.716,0,0,1,0,5.427H599.125a2.716,2.716,0,0,1,0-5.427H640.56Z" transform="translate(-226.319 -435.276)"/><path class="d" d="M646.7,1462.135a2.715,2.715,0,0,1,0,5.425H621.846a2.715,2.715,0,0,1,0-5.425H646.7Z" transform="translate(-236.607 -441.445)"/><path class="d" d="M630.845,1475.973a2.716,2.716,0,0,1,0,5.427H614.273a2.716,2.716,0,0,1,0-5.427h16.572Z" transform="translate(-233.178 -447.711)"/><path class="d" d="M638.418,1489.6a2.716,2.716,0,0,1,0,5.426H621.846a2.716,2.716,0,0,1,0-5.426h16.572Z" transform="translate(-236.607 -453.881)"/><path class="d" d="M630.845,1503.436a2.716,2.716,0,0,1,0,5.427H614.273a2.716,2.716,0,0,1,0-5.427h16.572Z" transform="translate(-233.178 -460.148)"/><path class="d" d="M623.272,1517.06a2.716,2.716,0,0,1,0,5.427H606.7a2.716,2.716,0,0,1,0-5.427h16.572Z" transform="translate(-229.747 -466.317)"/><path class="d" d="M630.845,1530.9a2.715,2.715,0,0,1,0,5.425H614.273a2.715,2.715,0,0,1,0-5.425h16.572Z" transform="translate(-233.178 -472.585)"/><path class="d" d="M623.272,1544.521a2.717,2.717,0,0,1,0,5.429H606.7a2.717,2.717,0,0,1,0-5.429h16.572Z" transform="translate(-229.747 -478.753)"/><path class="d" d="M638.418,1571.988a2.715,2.715,0,0,1,0,5.425H621.846a2.715,2.715,0,0,1,0-5.425h16.572Z" transform="translate(-236.607 -491.191)"/><path class="d" d="M622.559,1558.361a2.717,2.717,0,0,1,0,5.428h-8.286a2.716,2.716,0,0,1,0-5.428h8.286Z" transform="translate(-233.178 -485.02)"/><path class="d" d="M652.849,1585.829a2.715,2.715,0,0,1,0,5.425h-8.288a2.715,2.715,0,0,1,0-5.425h8.288Z" transform="translate(-246.894 -497.459)"/><path class="d" d="M672.989,1379.746a2.715,2.715,0,0,1,0,5.425H606.7a2.715,2.715,0,0,1,0-5.425h66.288Z" transform="translate(-229.747 -404.135)"/><path class="d" d="M672.278,1366.122a2.715,2.715,0,0,1,0,5.426h-58a2.715,2.715,0,0,1,0-5.426h58Z" transform="translate(-233.178 -397.966)"/><path class="d" d="M681.278,1352.283a2.716,2.716,0,0,1,0,5.427H606.7a2.716,2.716,0,0,1,0-5.427h74.577Z" transform="translate(-229.747 -391.699)"/><path class="d" d="M697.136,1338.661a2.715,2.715,0,0,1,0,5.425H614.273a2.715,2.715,0,0,1,0-5.425h82.863Z" transform="translate(-233.178 -385.53)"/><path class="d" d="M685.564,1242.43a2.717,2.717,0,0,1,0,5.428h-124.3a2.717,2.717,0,0,1,0-5.428h124.3Z" transform="translate(-209.175 -341.953)"/><path class="d" d="M686.277,1256.271a2.715,2.715,0,0,1,0,5.425H553.692a2.715,2.715,0,0,1,0-5.425H686.277Z" transform="translate(-205.746 -348.22)"/><path class="d" d="M685.564,1269.9a2.716,2.716,0,0,1,0,5.427h-124.3a2.716,2.716,0,0,1,0-5.427h124.3Z" transform="translate(-209.175 -354.39)"/><path class="d" d="M683.422,1311.191a2.718,2.718,0,0,1,0,5.43h-99.44a2.718,2.718,0,0,1,0-5.43h99.44Z" transform="translate(-219.461 -373.091)"/><path class="d" d="M675.85,1297.357a2.716,2.716,0,0,1,0,5.427H576.411a2.716,2.716,0,0,1,0-5.427H675.85Z" transform="translate(-216.033 -366.826)"/><path class="d" d="M684.849,1283.73a2.717,2.717,0,0,1,0,5.428H568.837a2.717,2.717,0,0,1,0-5.428H684.849Z" transform="translate(-212.604 -360.655)"/><path class="d" d="M697.85,1324.82a2.715,2.715,0,0,1,0,5.426H606.7a2.715,2.715,0,0,1,0-5.426H697.85Z" transform="translate(-229.747 -379.262)"/><path class="d" d="M611.7,1173.884a2.715,2.715,0,0,1,0,5.425H553.692a2.715,2.715,0,0,1,0-5.425H611.7Z" transform="translate(-205.746 -310.912)"/><path class="d" d="M642.7,1187.5a2.715,2.715,0,0,1,0,5.425H576.411a2.715,2.715,0,0,1,0-5.425H642.7Z" transform="translate(-216.033 -317.08)"/><path class="d" d="M636.56,1201.34a2.717,2.717,0,0,1,0,5.428H553.692a2.717,2.717,0,0,1,0-5.428H636.56Z" transform="translate(-205.746 -323.345)"/><path class="d" d="M637.271,1214.969a2.715,2.715,0,0,1,0,5.426H546.118a2.715,2.715,0,0,1,0-5.426h91.153Z" transform="translate(-202.315 -329.517)"/><path class="d" d="M653.133,1228.806a2.715,2.715,0,0,1,0,5.425H553.692a2.715,2.715,0,0,1,0-5.425h99.441Z" transform="translate(-205.746 -335.783)"/><path class="d" d="M597.27,1160.043a2.716,2.716,0,0,1,0,5.427H530.978a2.716,2.716,0,0,1,0-5.427H597.27Z" transform="translate(-195.459 -304.644)"/><path class="d" d="M577.124,1146.414a2.715,2.715,0,0,1,0,5.426h-8.287a2.715,2.715,0,0,1,0-5.426h8.287Z" transform="translate(-212.604 -298.472)"/><path class="d" d="M478.685,1214.969a2.715,2.715,0,0,1,0,5.426H470.4a2.715,2.715,0,0,1,0-5.426h8.289Z" transform="translate(-168.025 -329.517)"/><path class="d" d="M516.544,1146.414a2.715,2.715,0,0,1,0,5.426h-8.284a2.715,2.715,0,0,1,0-5.426h8.284Z" transform="translate(-185.17 -298.472)"/><path class="d" d="M510.4,1132.58a2.716,2.716,0,0,1,0,5.427h-24.86a2.716,2.716,0,0,1,0-5.427H510.4Z" transform="translate(-174.884 -292.208)"/><path class="d" d="M472.542,1118.954a2.715,2.715,0,0,1,0,5.425H447.68a2.715,2.715,0,0,1,0-5.425h24.862Z" transform="translate(-157.738 -286.037)"/><path class="d" d="M427.821,1077.652a2.717,2.717,0,0,1,0,5.429H394.674a2.717,2.717,0,0,1,0-5.429h33.147Z" transform="translate(-133.735 -267.334)"/><path class="d" d="M414.105,1050.191a2.715,2.715,0,0,1,0,5.426H364.386a2.715,2.715,0,0,1,0-5.426h49.719Z" transform="translate(-120.019 -254.898)"/><path class="d" d="M413.389,1064.033a2.715,2.715,0,0,1,0,5.425H371.957a2.715,2.715,0,0,1,0-5.425h41.432Z" transform="translate(-123.447 -261.167)"/><path class="d" d="M414.817,1036.567a2.715,2.715,0,0,1,0,5.426h-58a2.715,2.715,0,0,1,0-5.426h58Z" transform="translate(-116.589 -248.729)"/><path class="d" d="M433.962,1091.493a2.715,2.715,0,0,1,0,5.426H417.389a2.715,2.715,0,0,1,0-5.426h16.573Z" transform="translate(-144.02 -273.602)"/><path class="d" d="M441.536,1105.12a2.715,2.715,0,0,1,0,5.425H424.965a2.715,2.715,0,0,1,0-5.425h16.572Z" transform="translate(-147.45 -279.773)"/><path class="d" d="M555.121,1091.493a2.715,2.715,0,0,1,0,5.426H538.548a2.715,2.715,0,0,1,0-5.426h16.572Z" transform="translate(-198.887 -273.602)"/><path class="d" d="M477.538,1022.728a2.716,2.716,0,0,1,0,5.427H394.674a2.716,2.716,0,0,1,0-5.427h82.863Z" transform="translate(-133.735 -242.462)"/><path class="d" d="M464.535,1009.1a2.716,2.716,0,0,1,0,5.428H356.814a2.716,2.716,0,0,1,0-5.428H464.535Z" transform="translate(-116.589 -236.291)"/><path class="d" d="M480.4,995.266a2.715,2.715,0,0,1,0,5.426H364.386a2.715,2.715,0,0,1,0-5.426H480.4Z" transform="translate(-120.019 -230.026)"/><path class="d" d="M465.963,981.638a2.716,2.716,0,0,1,0,5.426h-124.3a2.716,2.716,0,0,1,0-5.426h124.3Z" transform="translate(-109.73 -223.854)"/><path class="d" d="M481.823,967.8a2.717,2.717,0,0,1,0,5.428H349.24a2.716,2.716,0,0,1,0-5.428H481.823Z" transform="translate(-113.159 -217.588)"/><path class="d" d="M585.41,954.177a2.715,2.715,0,0,1,0,5.425H568.837a2.715,2.715,0,0,1,0-5.425H585.41Z" transform="translate(-212.604 -211.419)"/><path class="d" d="M442.533,954.177a2.715,2.715,0,0,1,0,5.425H326.522a2.715,2.715,0,0,1,0-5.425H442.533Z" transform="translate(-102.872 -211.419)"/><path class="d" d="M476.4,940.336a2.718,2.718,0,0,1,0,5.43H318.951a2.718,2.718,0,0,1,0-5.43H476.4Z" transform="translate(-99.444 -205.151)"/><path class="d" d="M595.128,926.717a2.715,2.715,0,0,1,0,5.425H553.692a2.715,2.715,0,0,1,0-5.425h41.436Z" transform="translate(-205.746 -198.984)"/><path class="d" d="M604.126,912.875a2.715,2.715,0,0,1,0,5.426H546.118a2.715,2.715,0,0,1,0-5.426h58.008Z" transform="translate(-202.315 -192.715)"/><path class="d" d="M441.1,926.717a2.715,2.715,0,0,1,0,5.425H341.667a2.715,2.715,0,0,1,0-5.425H441.1Z" transform="translate(-109.73 -198.984)"/><path class="d" d="M433.532,912.875a2.715,2.715,0,0,1,0,5.426H334.094a2.715,2.715,0,0,1,0-5.426h99.437Z" transform="translate(-106.301 -192.715)"/><path class="d" d="M698.284,899.251a2.715,2.715,0,0,1,0,5.426H690a2.715,2.715,0,0,1,0-5.426h8.287Z" transform="translate(-267.47 -186.546)"/><path class="d" d="M586.842,899.251a2.716,2.716,0,0,1,0,5.426H553.692a2.716,2.716,0,0,1,0-5.426h33.149Z" transform="translate(-205.746 -186.546)"/><path class="d" d="M432.819,899.251a2.715,2.715,0,0,1,0,5.426H341.667a2.715,2.715,0,0,1,0-5.426h91.152Z" transform="translate(-109.73 -186.546)"/><path class="d" d="M514.969,885.414a2.715,2.715,0,0,1,0,5.426H349.24a2.715,2.715,0,0,1,0-5.426h165.73Z" transform="translate(-113.159 -180.28)"/><path class="d" d="M620,871.786a2.716,2.716,0,0,1,0,5.427H553.692a2.716,2.716,0,0,1,0-5.427H620Z" transform="translate(-205.746 -174.109)"/><path class="d" d="M656.417,857.949a2.715,2.715,0,0,1,0,5.426H606.7a2.715,2.715,0,0,1,0-5.426h49.717Z" transform="translate(-229.747 -167.843)"/><path class="d" d="M647.419,816.86a2.716,2.716,0,0,1,0,5.427H614.273a2.716,2.716,0,0,1,0-5.427h33.146Z" transform="translate(-233.178 -149.236)"/><path class="d" d="M655.7,844.323a2.715,2.715,0,0,1,0,5.425H614.273a2.715,2.715,0,0,1,0-5.425H655.7Z" transform="translate(-233.178 -161.672)"/><path class="d" d="M648.131,830.484a2.717,2.717,0,0,1,0,5.428H606.7a2.716,2.716,0,0,1,0-5.428h41.431Z" transform="translate(-229.747 -155.405)"/><path class="d" d="M648.131,803.019a2.716,2.716,0,0,1,0,5.427H606.7a2.716,2.716,0,0,1,0-5.427h41.431Z" transform="translate(-229.747 -142.968)"/><path class="d" d="M637.7,789.4a2.715,2.715,0,0,1,0,5.426h-8.286a2.715,2.715,0,0,1,0-5.426H637.7Z" transform="translate(-240.035 -136.8)"/><path class="d" d="M554.4,857.949a2.715,2.715,0,0,1,0,5.426h-8.287a2.715,2.715,0,0,1,0-5.426H554.4Z" transform="translate(-202.315 -167.843)"/><path class="d" d="M541.4,844.323a2.715,2.715,0,0,1,0,5.425H508.259a2.715,2.715,0,0,1,0-5.425H541.4Z" transform="translate(-185.17 -161.672)"/><path class="d" d="M423.117,871.786a2.716,2.716,0,0,1,0,5.427h-66.3a2.716,2.716,0,0,1,0-5.427h66.3Z" transform="translate(-116.589 -174.109)"/><path class="d" d="M423.819,857.949a2.715,2.715,0,0,1,0,5.426H349.24a2.715,2.715,0,0,1,0-5.426h74.579Z" transform="translate(-113.159 -167.843)"/><path class="d" d="M423.117,844.323a2.715,2.715,0,0,1,0,5.425h-66.3a2.715,2.715,0,0,1,0-5.425h66.3Z" transform="translate(-116.589 -161.672)"/><path class="d" d="M466.639,830.484a2.717,2.717,0,0,1,0,5.428H334.094a2.716,2.716,0,0,1,0-5.428H466.639Z" transform="translate(-106.301 -155.405)"/><path class="d" d="M449.391,816.86a2.716,2.716,0,0,1,0,5.427H341.667a2.716,2.716,0,0,1,0-5.427H449.391Z" transform="translate(-109.73 -149.236)"/><path class="d" d="M434.245,789.4a2.715,2.715,0,0,1,0,5.426H326.522a2.715,2.715,0,0,1,0-5.426H434.245Z" transform="translate(-102.872 -136.8)"/><path class="d" d="M434.962,775.558a2.715,2.715,0,0,1,0,5.426H318.951a2.715,2.715,0,0,1,0-5.426H434.962Z" transform="translate(-99.444 -130.532)"/><path class="d" d="M148.286,775.558a2.715,2.715,0,0,1,0,5.426H106.922a2.715,2.715,0,0,1,0-5.426h41.363Z" transform="translate(-3.428 -130.532)"/><path class="d" d="M132.5,789.4a2.715,2.715,0,0,1,0,5.426H99.353a2.715,2.715,0,0,1,0-5.426H132.5Z" transform="translate(0 -136.8)"/><path class="d" d="M207.507,748.1a2.715,2.715,0,0,1,0,5.426h-24.86a2.715,2.715,0,0,1,0-5.426h24.86Z" transform="translate(-37.718 -118.097)"/><path class="d" d="M199.934,761.934a2.716,2.716,0,0,1,0,5.427H175.075a2.716,2.716,0,0,1,0-5.427h24.859Z" transform="translate(-34.29 -124.363)"/><path class="d" d="M417.675,761.934a2.716,2.716,0,0,1,0,5.427H326.522a2.716,2.716,0,0,1,0-5.427h91.153Z" transform="translate(-102.872 -124.363)"/><path class="d" d="M443.247,748.1a2.715,2.715,0,0,1,0,5.426h-124.3a2.715,2.715,0,0,1,0-5.426h124.3Z" transform="translate(-99.444 -118.097)"/><path class="d" d="M531.69,761.934a2.716,2.716,0,0,1,0,5.427H523.4a2.716,2.716,0,0,1,0-5.427h8.287Z" transform="translate(-192.029 -124.363)"/><path class="d" d="M668.707,748.1a2.715,2.715,0,0,1,0,5.426H652.134a2.715,2.715,0,0,1,0-5.426h16.573Z" transform="translate(-250.323 -118.097)"/><path class="d" d="M670.849,734.472a2.716,2.716,0,0,1,0,5.427H629.417a2.716,2.716,0,0,1,0-5.427h41.432Z" transform="translate(-240.035 -111.927)"/><path class="d" d="M546.833,734.472a2.716,2.716,0,0,1,0,5.427h-8.285a2.716,2.716,0,0,1,0-5.427h8.285Z" transform="translate(-198.887 -111.927)"/><path class="d" d="M592.267,734.472a2.716,2.716,0,0,1,0,5.427h-8.286a2.716,2.716,0,0,1,0-5.427h8.286Z" transform="translate(-219.461 -111.927)"/><path class="d" d="M494.543,734.472a2.716,2.716,0,0,1,0,5.427H477.968a2.716,2.716,0,0,1,0-5.427h16.575Z" transform="translate(-171.454 -111.927)"/><path class="d" d="M377.67,734.472a2.716,2.716,0,0,1,0,5.427H311.378a2.716,2.716,0,0,1,0-5.427H377.67Z" transform="translate(-96.013 -111.927)"/><path class="d" d="M404.956,720.633a2.715,2.715,0,0,1,0,5.425H197.792a2.715,2.715,0,0,1,0-5.425H404.956Z" transform="translate(-44.578 -105.66)"/><path class="d" d="M676.993,720.633a2.715,2.715,0,0,1,0,5.425H652.134a2.715,2.715,0,0,1,0-5.425h24.859Z" transform="translate(-250.323 -105.66)"/><path class="d" d="M422.245,707.009a2.715,2.715,0,0,1,0,5.425H190.222a2.715,2.715,0,0,1,0-5.425H422.245Z" transform="translate(-41.149 -99.49)"/><path class="d" d="M538.12,693.172a2.716,2.716,0,0,1,0,5.426H455.252a2.715,2.715,0,0,1,0-5.426H538.12Z" transform="translate(-161.166 -93.224)"/><path class="d" d="M313.8,693.172a2.715,2.715,0,0,1,0,5.426H197.792a2.715,2.715,0,0,1,0-5.426H313.8Z" transform="translate(-44.578 -93.224)"/><path class="d" d="M319.947,679.546a2.716,2.716,0,0,1,0,5.426H220.509a2.716,2.716,0,0,1,0-5.426h99.438Z" transform="translate(-54.865 -87.054)"/><path class="d" d="M449.109,679.546a2.716,2.716,0,0,1,0,5.426H432.537a2.716,2.716,0,0,1,0-5.426h16.572Z" transform="translate(-150.88 -87.054)"/><path class="d" d="M501.4,679.546a2.716,2.716,0,0,1,0,5.426h-8.286a2.716,2.716,0,0,1,0-5.426H501.4Z" transform="translate(-178.312 -87.054)"/><path class="d" d="M683.853,693.172a2.715,2.715,0,0,1,0,5.426H667.278a2.716,2.716,0,0,1,0-5.426h16.575Z" transform="translate(-257.183 -93.224)"/><path class="d" d="M667.993,679.546a2.716,2.716,0,0,1,0,5.426h-8.286a2.716,2.716,0,0,1,0-5.426h8.286Z" transform="translate(-253.752 -87.054)"/><path class="d" d="M646.7,665.705a2.717,2.717,0,0,1,0,5.429H621.846a2.717,2.717,0,0,1,0-5.429H646.7Z" transform="translate(-236.607 -80.786)"/><path class="d" d="M508.972,665.705a2.717,2.717,0,0,1,0,5.429h-8.286a2.717,2.717,0,0,1,0-5.429h8.286Z" transform="translate(-181.741 -80.786)"/><path class="d" d="M360.665,665.705a2.717,2.717,0,0,1,0,5.429H228.082a2.717,2.717,0,0,1,0-5.429H360.665Z" transform="translate(-58.293 -80.786)"/><path class="d" d="M377.954,652.085a2.715,2.715,0,0,1,0,5.426H220.509a2.715,2.715,0,0,1,0-5.426H377.954Z" transform="translate(-54.865 -74.618)"/><path class="d" d="M652.849,652.085a2.715,2.715,0,0,1,0,5.426h-8.288a2.715,2.715,0,0,1,0-5.426h8.288Z" transform="translate(-246.894 -74.618)"/><path class="d" d="M626.128,638.242a2.716,2.716,0,0,1,0,5.427H576.411a2.716,2.716,0,0,1,0-5.427h49.717Z" transform="translate(-216.033 -68.35)"/><path class="d" d="M345.522,638.242a2.716,2.716,0,0,1,0,5.427H212.938a2.716,2.716,0,0,1,0-5.427H345.522Z" transform="translate(-51.436 -68.35)"/><path class="d" d="M323.95,624.622a2.716,2.716,0,0,1,0,5.427H265.943a2.716,2.716,0,0,1,0-5.427H323.95Z" transform="translate(-75.439 -62.182)"/><path class="d" d="M309.518,610.782a2.716,2.716,0,0,1,0,5.426H243.224a2.716,2.716,0,0,1,0-5.426h66.294Z" transform="translate(-65.151 -55.915)"/><path class="d" d="M292.231,597.157a2.716,2.716,0,0,1,0,5.427H250.8a2.716,2.716,0,0,1,0-5.427h41.432Z" transform="translate(-68.581 -49.744)"/><path class="d" d="M305.171,583.32a2.715,2.715,0,0,1,0,5.426H288.66a2.715,2.715,0,0,1,0-5.426h16.511Z" transform="translate(-85.727 -43.478)"/><path class="d" d="M304.522,569.694a2.716,2.716,0,0,1,0,5.427h-8.287a2.716,2.716,0,0,1,0-5.427h8.287Z" transform="translate(-89.157 -37.308)"/><path class="d" d="M425.677,624.622a2.716,2.716,0,0,1,0,5.427h-8.288a2.716,2.716,0,0,1,0-5.427h8.288Z" transform="translate(-144.02 -62.182)"/><path class="d" d="M510.4,638.242a2.716,2.716,0,0,1,0,5.427h-24.86a2.716,2.716,0,0,1,0-5.427H510.4Z" transform="translate(-174.884 -68.35)"/><path class="d" d="M488.4,610.782a2.716,2.716,0,0,1,0,5.426H455.252a2.716,2.716,0,0,1,0-5.426H488.4Z" transform="translate(-161.166 -55.915)"/><path class="d" d="M494.543,597.157a2.716,2.716,0,0,1,0,5.427H477.968a2.716,2.716,0,0,1,0-5.427h16.575Z" transform="translate(-171.454 -49.744)"/><path class="d" d="M615.7,624.622a2.716,2.716,0,0,1,0,5.427H599.125a2.716,2.716,0,0,1,0-5.427H615.7Z" transform="translate(-226.319 -62.182)"/><path class="d" d="M645.991,597.157a2.716,2.716,0,0,1,0,5.427H629.417a2.716,2.716,0,0,1,0-5.427h16.574Z" transform="translate(-240.035 -49.744)"/><path class="d" d="M599.844,583.32a2.716,2.716,0,0,1,0,5.426h-8.289a2.715,2.715,0,0,1,0-5.426h8.289Z" transform="translate(-222.891 -43.478)"/><path class="d" d="M774.005,789.4a2.715,2.715,0,0,1,0,5.426h-8.287a2.715,2.715,0,0,1,0-5.426h8.287Z" transform="translate(-301.76 -136.8)"/><path class="d" d="M782.292,761.934a2.716,2.716,0,0,1,0,5.427H765.719a2.716,2.716,0,0,1,0-5.427h16.573Z" transform="translate(-301.76 -124.363)"/><path class="d" d="M774.72,775.558a2.715,2.715,0,0,1,0,5.426H758.147a2.715,2.715,0,0,1,0-5.426H774.72Z" transform="translate(-298.331 -130.532)"/><path class="d" d="M784.434,748.1a2.715,2.715,0,0,1,0,5.426H743a2.715,2.715,0,0,1,0-5.426h41.431Z" transform="translate(-291.472 -118.097)"/><path class="d" d="M792.007,734.472a2.716,2.716,0,0,1,0,5.427H750.573a2.716,2.716,0,0,1,0-5.427h41.433Z" transform="translate(-294.901 -111.927)"/><path class="d" d="M807.868,720.633a2.715,2.715,0,0,1,0,5.425h-49.72a2.715,2.715,0,0,1,0-5.425h49.72Z" transform="translate(-298.331 -105.66)"/><path class="d" d="M830.583,707.009a2.715,2.715,0,0,1,0,5.425H780.863a2.715,2.715,0,0,1,0-5.425h49.721Z" transform="translate(-308.618 -99.49)"/><path class="d" d="M825.867,693.172a2.715,2.715,0,0,1,0,5.426H743a2.715,2.715,0,0,1,0-5.426h82.864Z" transform="translate(-291.472 -93.224)"/><path class="d" d="M823.724,679.546a2.716,2.716,0,0,1,0,5.426H765.719a2.716,2.716,0,0,1,0-5.426h58.005Z" transform="translate(-301.76 -87.054)"/><path class="d" d="M816.153,665.705a2.717,2.717,0,0,1,0,5.429H758.147a2.717,2.717,0,0,1,0-5.429h58.006Z" transform="translate(-298.331 -80.786)"/><path class="d" d="M840.3,652.085a2.715,2.715,0,0,1,0,5.426h-74.58a2.715,2.715,0,0,1,0-5.426H840.3Z" transform="translate(-301.76 -74.618)"/><path class="d" d="M841.011,638.242a2.716,2.716,0,0,1,0,5.427H758.147a2.716,2.716,0,0,1,0-5.427h82.864Z" transform="translate(-298.331 -68.35)"/><path class="d" d="M832.011,624.622a2.716,2.716,0,0,1,0,5.427H765.719a2.716,2.716,0,0,1,0-5.427h66.292Z" transform="translate(-301.76 -62.182)"/><path class="d" d="M841.011,610.782a2.716,2.716,0,0,1,0,5.426H758.147a2.716,2.716,0,0,1,0-5.426h82.864Z" transform="translate(-298.331 -55.915)"/><path class="d" d="M819.724,597.157a2.716,2.716,0,0,1,0,5.427H720.286a2.716,2.716,0,0,1,0-5.427h99.438Z" transform="translate(-281.186 -49.744)"/><path class="d" d="M827.3,583.32a2.715,2.715,0,0,1,0,5.426H727.856a2.715,2.715,0,0,1,0-5.426H827.3Z" transform="translate(-284.614 -43.478)"/><path class="d" d="M834.869,569.694a2.717,2.717,0,0,1,0,5.428H735.431a2.717,2.717,0,0,1,0-5.428h99.438Z" transform="translate(-288.044 -37.308)"/><path class="d" d="M849.107,555.855a2.716,2.716,0,0,1,0,5.427H758.147a2.716,2.716,0,0,1,0-5.427h90.959Z" transform="translate(-298.331 -31.041)"/><path class="d" d="M692.139,555.855a2.716,2.716,0,0,1,0,5.427H667.278a2.716,2.716,0,0,1,0-5.427h24.861Z" transform="translate(-257.183 -31.041)"/><path class="d" d="M684.566,542.231a2.715,2.715,0,0,1,0,5.426H659.708a2.715,2.715,0,0,1,0-5.426h24.858Z" transform="translate(-253.752 -24.872)"/><path class="d" d="M524.831,542.231a2.715,2.715,0,0,1,0,5.426H508.259a2.715,2.715,0,0,1,0-5.426h16.572Z" transform="translate(-185.17 -24.872)"/><path class="d" d="M840.292,542.231a2.715,2.715,0,0,1,0,5.426H765.719a2.715,2.715,0,0,1,0-5.426h74.573Z" transform="translate(-301.76 -24.872)"/><path class="d" d="M793,528.392a2.715,2.715,0,0,1,0,5.426H652.134a2.715,2.715,0,0,1,0-5.426H793Z" transform="translate(-250.323 -18.605)"/><path class="d" d="M614.986,528.392a2.715,2.715,0,0,1,0,5.426H606.7a2.715,2.715,0,0,1,0-5.426h8.285Z" transform="translate(-229.747 -18.605)"/><path class="d" d="M532.4,528.392a2.715,2.715,0,0,1,0,5.426H515.831a2.715,2.715,0,0,1,0-5.426H532.4Z" transform="translate(-188.6 -18.605)"/><path class="d" d="M889.734,514.769a2.716,2.716,0,0,1,0,5.426H856.587a2.716,2.716,0,0,1,0-5.426h33.147Z" transform="translate(-342.909 -12.436)"/><path class="d" d="M667.993,514.769a2.716,2.716,0,0,1,0,5.426h-8.286a2.716,2.716,0,0,1,0-5.426h8.286Z" transform="translate(-253.752 -12.436)"/><path class="d" d="M743.717,514.769a2.716,2.716,0,0,1,0,5.426h-8.286a2.716,2.716,0,0,1,0-5.426h8.286Z" transform="translate(-288.044 -12.436)"/><path class="d" d="M725.285,500.928a2.716,2.716,0,0,1,0,5.427H667.278a2.716,2.716,0,0,1,0-5.427h58.007Z" transform="translate(-257.183 -6.168)"/><path class="d" d="M738.286,487.308a2.715,2.715,0,0,1,0,5.425H705.14a2.715,2.715,0,0,1,0-5.425h33.146Z" transform="translate(-274.328)"/><path class="d" d="M1310.927,492.733a2.715,2.715,0,1,0-2.6-2.713A2.665,2.665,0,0,0,1310.927,492.733Z" transform="translate(-548.654)"/><path class="d" d="M583.982,520.2a2.716,2.716,0,1,0-2.6-2.715A2.663,2.663,0,0,0,583.982,520.2Z" transform="translate(-219.461 -12.436)"/><path class="d" d="M614.275,520.2a2.716,2.716,0,1,0-2.6-2.715A2.663,2.663,0,0,0,614.275,520.2Z" transform="translate(-233.179 -12.436)"/><path class="d" d="M796.01,520.2a2.716,2.716,0,1,0-2.6-2.715A2.661,2.661,0,0,0,796.01,520.2Z" transform="translate(-315.476 -12.436)"/><path class="d" d="M826.3,520.2a2.716,2.716,0,1,0-2.6-2.715A2.663,2.663,0,0,0,826.3,520.2Z" transform="translate(-329.192 -12.436)"/><path class="d" d="M1204.916,520.2a2.716,2.716,0,1,0-2.6-2.715A2.663,2.663,0,0,0,1204.916,520.2Z" transform="translate(-500.647 -12.436)"/><path class="d" d="M568.837,547.657a2.715,2.715,0,1,0-2.6-2.711A2.661,2.661,0,0,0,568.837,547.657Z" transform="translate(-212.604 -24.872)"/><path class="d" d="M629.417,547.657a2.715,2.715,0,1,0-2.6-2.711A2.66,2.66,0,0,0,629.417,547.657Z" transform="translate(-240.035 -24.872)"/><path class="d" d="M932.311,547.657a2.715,2.715,0,1,0-2.6-2.711A2.659,2.659,0,0,0,932.311,547.657Z" transform="translate(-377.2 -24.872)"/><path class="d" d="M1144.337,547.657a2.715,2.715,0,1,0-2.6-2.711A2.66,2.66,0,0,0,1144.337,547.657Z" transform="translate(-473.215 -24.872)"/><path class="d" d="M1189.773,547.657a2.715,2.715,0,1,0-2.6-2.711A2.662,2.662,0,0,0,1189.773,547.657Z" transform="translate(-493.79 -24.872)"/><path class="d" d="M1371.506,547.657a2.715,2.715,0,1,0-2.6-2.711A2.661,2.661,0,0,0,1371.506,547.657Z" transform="translate(-576.087 -24.872)"/><path class="d" d="M1416.941,547.657a2.715,2.715,0,1,0-2.6-2.711A2.662,2.662,0,0,0,1416.941,547.657Z" transform="translate(-596.662 -24.872)"/><path class="d" d="M599.125,575.121a2.716,2.716,0,1,0-2.6-2.713A2.662,2.662,0,0,0,599.125,575.121Z" transform="translate(-226.319 -37.308)"/><path class="d" d="M690,575.121a2.716,2.716,0,1,0-2.6-2.713A2.661,2.661,0,0,0,690,575.121Z" transform="translate(-267.47 -37.308)"/><path class="d" d="M1053.468,575.121a2.716,2.716,0,1,0-2.6-2.713A2.662,2.662,0,0,0,1053.468,575.121Z" transform="translate(-432.065 -37.308)"/><path class="d" d="M1659.258,575.121a2.716,2.716,0,1,0-2.6-2.713A2.662,2.662,0,0,0,1659.258,575.121Z" transform="translate(-706.393 -37.308)"/><path class="d" d="M1250.35,602.584a2.716,2.716,0,1,0-2.6-2.713A2.661,2.661,0,0,0,1250.35,602.584Z" transform="translate(-521.223 -49.744)"/><path class="d" d="M1416.941,602.584a2.716,2.716,0,1,0-2.6-2.713A2.662,2.662,0,0,0,1416.941,602.584Z" transform="translate(-596.662 -49.744)"/><path class="d" d="M220.509,630.049a2.716,2.716,0,1,0-2.6-2.715A2.663,2.663,0,0,0,220.509,630.049Z" transform="translate(-54.865 -62.182)"/><path class="d" d="M568.837,630.047a2.717,2.717,0,1,0-2.6-2.715A2.663,2.663,0,0,0,568.837,630.047Z" transform="translate(-212.604 -62.18)"/><path class="d" d="M659.708,630.047a2.717,2.717,0,1,0-2.6-2.715A2.663,2.663,0,0,0,659.708,630.047Z" transform="translate(-253.752 -62.18)"/><path class="d" d="M1053.468,630.049a2.716,2.716,0,1,0-2.6-2.715A2.663,2.663,0,0,0,1053.468,630.049Z" transform="translate(-432.065 -62.182)"/><path class="d" d="M190.222,657.511a2.715,2.715,0,1,0-2.6-2.714A2.662,2.662,0,0,0,190.222,657.511Z" transform="translate(-41.149 -74.618)"/><path class="d" d="M538.548,657.511a2.715,2.715,0,1,0-2.6-2.714A2.663,2.663,0,0,0,538.548,657.511Z" transform="translate(-198.887 -74.618)"/><path class="d" d="M583.982,657.511a2.715,2.715,0,1,0-2.6-2.714A2.663,2.663,0,0,0,583.982,657.511Z" transform="translate(-219.461 -74.618)"/><path class="d" d="M614.275,657.511a2.715,2.715,0,1,0-2.6-2.714A2.663,2.663,0,0,0,614.275,657.511Z" transform="translate(-233.179 -74.618)"/><path class="d" d="M1220.058,657.511a2.715,2.715,0,1,0-2.6-2.714A2.662,2.662,0,0,0,1220.058,657.511Z" transform="translate(-507.505 -74.618)"/><path class="d" d="M553.692,684.972a2.716,2.716,0,1,0-2.594-2.712A2.663,2.663,0,0,0,553.692,684.972Z" transform="translate(-205.746 -87.054)"/><path class="d" d="M629.417,684.972a2.716,2.716,0,1,0-2.6-2.712A2.661,2.661,0,0,0,629.417,684.972Z" transform="translate(-240.035 -87.054)"/><path class="d" d="M1220.058,684.972a2.716,2.716,0,1,0-2.6-2.712A2.661,2.661,0,0,0,1220.058,684.972Z" transform="translate(-507.505 -87.054)"/><path class="d" d="M644.561,712.434a2.715,2.715,0,1,0-2.6-2.711A2.661,2.661,0,0,0,644.561,712.434Z" transform="translate(-246.894 -99.49)"/><path class="d" d="M674.852,712.434a2.715,2.715,0,1,0-2.6-2.711A2.662,2.662,0,0,0,674.852,712.434Z" transform="translate(-260.611 -99.49)"/><path class="d" d="M1204.916,712.434a2.715,2.715,0,1,0-2.6-2.711A2.661,2.661,0,0,0,1204.916,712.434Z" transform="translate(-500.647 -99.49)"/><path class="d" d="M1780.414,712.434a2.715,2.715,0,1,0-2.6-2.711A2.66,2.66,0,0,0,1780.414,712.434Z" transform="translate(-761.257 -99.49)"/><path class="d" d="M220.509,739.9a2.716,2.716,0,1,0-2.6-2.713A2.662,2.662,0,0,0,220.509,739.9Z" transform="translate(-54.865 -111.927)"/><path class="d" d="M599.125,767.361a2.716,2.716,0,1,0-2.6-2.713A2.662,2.662,0,0,0,599.125,767.361Z" transform="translate(-226.319 -124.363)"/><path class="d" d="M674.852,767.361a2.716,2.716,0,1,0-2.6-2.713A2.662,2.662,0,0,0,674.852,767.361Z" transform="translate(-260.611 -124.363)"/><path class="d" d="M1840.992,767.361a2.716,2.716,0,1,0-2.6-2.713A2.662,2.662,0,0,0,1840.992,767.361Z" transform="translate(-788.691 -124.363)"/><path class="d" d="M1098.9,794.825a2.715,2.715,0,1,0-2.6-2.714A2.661,2.661,0,0,0,1098.9,794.825Z" transform="translate(-452.64 -136.8)"/><path class="d" d="M1144.337,794.825a2.715,2.715,0,1,0-2.6-2.714A2.661,2.661,0,0,0,1144.337,794.825Z" transform="translate(-473.215 -136.8)"/><path class="d" d="M1795.558,794.825a2.715,2.715,0,1,0-2.6-2.714A2.662,2.662,0,0,0,1795.558,794.825Z" transform="translate(-768.117 -136.8)"/><path class="d" d="M962.6,822.287a2.716,2.716,0,1,0-2.6-2.712A2.663,2.663,0,0,0,962.6,822.287Z" transform="translate(-390.916 -149.236)"/><path class="d" d="M1023.177,822.287a2.716,2.716,0,1,0-2.6-2.712A2.665,2.665,0,0,0,1023.177,822.287Z" transform="translate(-418.348 -149.236)"/><path class="d" d="M1780.414,822.287a2.716,2.716,0,1,0-2.6-2.712A2.661,2.661,0,0,0,1780.414,822.287Z" transform="translate(-761.257 -149.236)"/><path class="d" d="M1795.558,822.287a2.716,2.716,0,1,0-2.6-2.712A2.662,2.662,0,0,0,1795.558,822.287Z" transform="translate(-768.117 -149.236)"/><path class="d" d="M1038.326,849.748a2.715,2.715,0,1,0-2.6-2.711A2.659,2.659,0,0,0,1038.326,849.748Z" transform="translate(-425.209 -161.672)"/><path class="d" d="M508.259,877.213a2.716,2.716,0,1,0-2.6-2.714A2.663,2.663,0,0,0,508.259,877.213Z" transform="translate(-185.17 -174.109)"/><path class="d" d="M947.455,877.213a2.716,2.716,0,1,0-2.6-2.714A2.662,2.662,0,0,0,947.455,877.213Z" transform="translate(-384.058 -174.109)"/><path class="d" d="M977.745,877.213a2.716,2.716,0,1,0-2.6-2.714A2.664,2.664,0,0,0,977.745,877.213Z" transform="translate(-397.775 -174.109)"/><path class="d" d="M1734.982,877.213a2.716,2.716,0,1,0-2.6-2.714A2.663,2.663,0,0,0,1734.982,877.213Z" transform="translate(-740.685 -174.109)"/><path class="d" d="M1780.414,877.213a2.716,2.716,0,1,0-2.6-2.714A2.661,2.661,0,0,0,1780.414,877.213Z" transform="translate(-761.257 -174.109)"/><path class="d" d="M644.561,904.677a2.715,2.715,0,1,0-2.6-2.713A2.663,2.663,0,0,0,644.561,904.677Z" transform="translate(-246.894 -186.546)"/><path class="d" d="M659.708,932.142a2.715,2.715,0,1,0-2.6-2.715A2.663,2.663,0,0,0,659.708,932.142Z" transform="translate(-253.752 -198.984)"/><path class="d" d="M1098.9,959.6a2.715,2.715,0,1,0-2.6-2.713A2.662,2.662,0,0,0,1098.9,959.6Z" transform="translate(-452.64 -211.419)"/><path class="d" d="M1129.191,959.6a2.715,2.715,0,1,0-2.595-2.713A2.663,2.663,0,0,0,1129.191,959.6Z" transform="translate(-466.357 -211.419)"/><path class="d" d="M1674.4,959.6a2.715,2.715,0,1,0-2.6-2.713A2.663,2.663,0,0,0,1674.4,959.6Z" transform="translate(-713.252 -211.419)"/><path class="d" d="M1068.614,987.064a2.716,2.716,0,1,0-2.6-2.711A2.662,2.662,0,0,0,1068.614,987.064Z" transform="translate(-438.925 -223.854)"/><path class="d" d="M1114.049,987.064a2.716,2.716,0,1,0-2.6-2.711A2.662,2.662,0,0,0,1114.049,987.064Z" transform="translate(-459.5 -223.854)"/><path class="d" d="M1689.545,987.064a2.716,2.716,0,1,0-2.6-2.711A2.662,2.662,0,0,0,1689.545,987.064Z" transform="translate(-720.109 -223.854)"/><path class="d" d="M538.548,1041.993a2.715,2.715,0,1,0-2.6-2.715A2.663,2.663,0,0,0,538.548,1041.993Z" transform="translate(-198.887 -248.729)"/><path class="d" d="M583.982,1069.458a2.715,2.715,0,1,0-2.6-2.715A2.663,2.663,0,0,0,583.982,1069.458Z" transform="translate(-219.461 -261.167)"/><path class="d" d="M1326.073,1069.458a2.715,2.715,0,1,0-2.6-2.715A2.662,2.662,0,0,0,1326.073,1069.458Z" transform="translate(-555.512 -261.167)"/><path class="d" d="M129.642,1096.919a2.715,2.715,0,1,0-2.6-2.716A2.664,2.664,0,0,0,129.642,1096.919Z" transform="translate(-13.716 -273.602)"/><path class="d" d="M599.125,1096.919a2.715,2.715,0,1,0-2.6-2.716A2.664,2.664,0,0,0,599.125,1096.919Z" transform="translate(-226.319 -273.602)"/><path class="d" d="M629.417,1096.919a2.715,2.715,0,1,0-2.6-2.716A2.662,2.662,0,0,0,629.417,1096.919Z" transform="translate(-240.035 -273.602)"/><path class="d" d="M1280.639,1151.84a2.715,2.715,0,1,0-2.6-2.71A2.659,2.659,0,0,0,1280.639,1151.84Z" transform="translate(-534.939 -298.472)"/><path class="d" d="M1447.232,1179.309a2.715,2.715,0,1,0-2.6-2.715A2.664,2.664,0,0,0,1447.232,1179.309Z" transform="translate(-610.379 -310.912)"/><path class="d" d="M1659.258,1179.309a2.715,2.715,0,1,0-2.6-2.715A2.663,2.663,0,0,0,1659.258,1179.309Z" transform="translate(-706.393 -310.912)"/><path class="d" d="M1704.689,1179.309a2.715,2.715,0,1,0-2.6-2.715A2.661,2.661,0,0,0,1704.689,1179.309Z" transform="translate(-726.967 -310.912)"/><path class="d" d="M1674.4,1234.231a2.715,2.715,0,1,0-2.6-2.712A2.661,2.661,0,0,0,1674.4,1234.231Z" transform="translate(-713.252 -335.783)"/><path class="d" d="M1825.849,1234.231a2.715,2.715,0,1,0-2.6-2.712A2.659,2.659,0,0,0,1825.849,1234.231Z" transform="translate(-781.833 -335.783)"/><path class="d" d="M1674.4,1261.7a2.715,2.715,0,1,0-2.6-2.715A2.663,2.663,0,0,0,1674.4,1261.7Z" transform="translate(-713.252 -348.22)"/><path class="d" d="M1795.558,1289.156a2.715,2.715,0,1,0-2.6-2.71A2.66,2.66,0,0,0,1795.558,1289.156Z" transform="translate(-768.117 -360.655)"/><path class="d" d="M1825.849,1289.156a2.715,2.715,0,1,0-2.6-2.71A2.659,2.659,0,0,0,1825.849,1289.156Z" transform="translate(-781.833 -360.655)"/><path class="d" d="M1901.572,1289.156a2.715,2.715,0,1,0-2.6-2.71A2.659,2.659,0,0,0,1901.572,1289.156Z" transform="translate(-816.124 -360.655)"/><path class="d" d="M1795.558,1316.622a2.718,2.718,0,1,0-2.6-2.715A2.662,2.662,0,0,0,1795.558,1316.622Z" transform="translate(-768.117 -373.091)"/><path class="d" d="M1931.862,1316.622a2.718,2.718,0,1,0-2.6-2.715A2.662,2.662,0,0,0,1931.862,1316.622Z" transform="translate(-829.84 -373.091)"/><path class="d" d="M1901.572,1344.084a2.717,2.717,0,1,0-2.6-2.712A2.661,2.661,0,0,0,1901.572,1344.084Z" transform="translate(-816.124 -385.528)"/><g transform="translate(714.098 930.531)"><path class="d" d="M1259.35,1324.82a2.715,2.715,0,0,1,0,5.426h-16.573a2.715,2.715,0,0,1,0-5.426h16.573Z" transform="translate(-1231.891 -1309.793)"/><path class="d" d="M1244.2,1352.283a2.716,2.716,0,0,1,0,5.427h-16.573a2.716,2.716,0,0,1,0-5.427H1244.2Z" transform="translate(-1225.031 -1322.23)"/><path class="d" d="M1266.208,1297.357a2.716,2.716,0,0,1,0,5.427h-8.287a2.716,2.716,0,0,1,0-5.427h8.287Z" transform="translate(-1238.75 -1297.357)"/><path class="d" d="M1258.637,1311.191a2.718,2.718,0,0,1,0,5.43h-8.287a2.718,2.718,0,0,1,0-5.43h8.287Z" transform="translate(-1235.321 -1303.622)"/><path class="d" d="M1250.35,1344.084a2.717,2.717,0,1,0-2.6-2.712A2.661,2.661,0,0,0,1250.35,1344.084Z" transform="translate(-1235.321 -1316.059)"/><path class="d" d="M1235.2,1371.548a2.715,2.715,0,1,0-2.6-2.713A2.661,2.661,0,0,0,1235.2,1371.548Z" transform="translate(-1228.462 -1328.497)"/></g><path class="d" d="M1931.862,1481.4a2.716,2.716,0,1,0-2.6-2.714A2.662,2.662,0,0,0,1931.862,1481.4Z" transform="translate(-829.84 -447.711)"/><path class="d" d="M1780.414,1536.326a2.715,2.715,0,1,0-2.6-2.712A2.66,2.66,0,0,0,1780.414,1536.326Z" transform="translate(-761.257 -472.585)"/><path class="d" d="M1916.714,1536.326a2.715,2.715,0,1,0-2.6-2.712A2.662,2.662,0,0,0,1916.714,1536.326Z" transform="translate(-822.981 -472.585)"/><path class="d" d="M690,1563.789a2.717,2.717,0,1,0-2.6-2.713A2.663,2.663,0,0,0,690,1563.789Z" transform="translate(-267.47 -485.02)"/><path class="d" d="M1871.281,1591.254a2.715,2.715,0,1,0-2.6-2.713A2.664,2.664,0,0,0,1871.281,1591.254Z" transform="translate(-802.408 -497.459)"/><path class="d" d="M849.019,506.355a2.716,2.716,0,1,0-2.6-2.713A2.662,2.662,0,0,0,849.019,506.355Z" transform="translate(-339.482 -6.168)"/><path class="d" d="M864.16,506.355a2.716,2.716,0,1,0-2.6-2.713A2.663,2.663,0,0,0,864.16,506.355Z" transform="translate(-346.337 -6.168)"/><path class="d" d="M909.594,506.355a2.716,2.716,0,1,0-2.6-2.713A2.663,2.663,0,0,0,909.594,506.355Z" transform="translate(-366.913 -6.168)"/><path class="d" d="M1303.356,506.355a2.716,2.716,0,1,0-2.6-2.713A2.662,2.662,0,0,0,1303.356,506.355Z" transform="translate(-545.226 -6.168)"/><path class="d" d="M576.411,533.818a2.715,2.715,0,1,0-2.6-2.713A2.662,2.662,0,0,0,576.411,533.818Z" transform="translate(-216.033 -18.605)"/><path class="d" d="M1575.958,533.818a2.715,2.715,0,1,0-2.6-2.713A2.662,2.662,0,0,0,1575.958,533.818Z" transform="translate(-668.672 -18.605)"/><path class="d" d="M500.687,561.282a2.716,2.716,0,1,0-2.6-2.714A2.661,2.661,0,0,0,500.687,561.282Z" transform="translate(-181.741 -31.041)"/><path class="d" d="M606.7,561.282a2.716,2.716,0,1,0-2.6-2.714A2.662,2.662,0,0,0,606.7,561.282Z" transform="translate(-229.747 -31.041)"/><path class="d" d="M636.99,561.282a2.716,2.716,0,1,0-2.6-2.714A2.661,2.661,0,0,0,636.99,561.282Z" transform="translate(-243.465 -31.041)"/><path class="d" d="M1379.08,561.282a2.716,2.716,0,1,0-2.6-2.714A2.66,2.66,0,0,0,1379.08,561.282Z" transform="translate(-579.517 -31.041)"/><path class="d" d="M1560.815,561.282a2.716,2.716,0,1,0-2.6-2.714A2.663,2.663,0,0,0,1560.815,561.282Z" transform="translate(-661.815 -31.041)"/><path class="d" d="M1606.25,561.282a2.716,2.716,0,1,0-2.6-2.714A2.662,2.662,0,0,0,1606.25,561.282Z" transform="translate(-682.389 -31.041)"/><path class="d" d="M1848.565,561.282a2.716,2.716,0,1,0-2.6-2.714A2.662,2.662,0,0,0,1848.565,561.282Z" transform="translate(-792.12 -31.041)"/><path class="d" d="M485.544,588.746a2.715,2.715,0,1,0-2.6-2.714A2.661,2.661,0,0,0,485.544,588.746Z" transform="translate(-174.884 -43.478)"/><path class="d" d="M636.99,588.746a2.715,2.715,0,1,0-2.6-2.714A2.662,2.662,0,0,0,636.99,588.746Z" transform="translate(-243.465 -43.478)"/><path class="d" d="M546.118,616.208a2.716,2.716,0,1,0-2.6-2.712A2.663,2.663,0,0,0,546.118,616.208Z" transform="translate(-202.315 -55.915)"/><path class="d" d="M621.846,616.208a2.716,2.716,0,1,0-2.6-2.712A2.662,2.662,0,0,0,621.846,616.208Z" transform="translate(-236.607 -55.915)"/><path class="d" d="M667.278,616.208a2.716,2.716,0,1,0-2.594-2.712A2.663,2.663,0,0,0,667.278,616.208Z" transform="translate(-257.183 -55.915)"/><path class="d" d="M197.793,671.134a2.717,2.717,0,1,0-2.6-2.716A2.662,2.662,0,0,0,197.793,671.134Z" transform="translate(-44.578 -80.786)"/><path class="d" d="M546.118,671.134a2.717,2.717,0,1,0-2.6-2.716A2.664,2.664,0,0,0,546.118,671.134Z" transform="translate(-202.315 -80.786)"/><path class="d" d="M576.411,671.134a2.717,2.717,0,1,0-2.6-2.716A2.664,2.664,0,0,0,576.411,671.134Z" transform="translate(-216.033 -80.786)"/><path class="d" d="M1288.21,698.6a2.715,2.715,0,1,0-2.6-2.713A2.662,2.662,0,0,0,1288.21,698.6Z" transform="translate(-538.368 -93.224)"/><path class="d" d="M1772.841,726.058a2.715,2.715,0,1,0-2.6-2.712A2.659,2.659,0,0,0,1772.841,726.058Z" transform="translate(-757.829 -105.66)"/><path class="d" d="M591.555,753.524a2.715,2.715,0,1,0-2.6-2.714A2.663,2.663,0,0,0,591.555,753.524Z" transform="translate(-222.891 -118.097)"/><path class="d" d="M712.714,753.524a2.715,2.715,0,1,0-2.595-2.714A2.663,2.663,0,0,0,712.714,753.524Z" transform="translate(-277.758 -118.097)"/><path class="d" d="M682.424,780.984a2.715,2.715,0,1,0-2.6-2.711A2.662,2.662,0,0,0,682.424,780.984Z" transform="translate(-264.04 -130.532)"/><path class="d" d="M1833.422,780.984a2.715,2.715,0,1,0-2.6-2.711A2.663,2.663,0,0,0,1833.422,780.984Z" transform="translate(-785.263 -130.532)"/><path class="d" d="M1787.988,808.446a2.716,2.716,0,1,0-2.6-2.712A2.661,2.661,0,0,0,1787.988,808.446Z" transform="translate(-764.688 -142.968)"/><path class="d" d="M1045.9,835.912a2.717,2.717,0,1,0-2.6-2.715A2.663,2.663,0,0,0,1045.9,835.912Z" transform="translate(-428.637 -155.405)"/><ellipse class="e" cx="2.597" cy="2.713" rx="2.597" ry="2.713" transform="translate(324.635 690.107)"/><path class="d" d="M939.882,863.375a2.715,2.715,0,1,0-2.6-2.713A2.662,2.662,0,0,0,939.882,863.375Z" transform="translate(-380.629 -167.843)"/><ellipse class="e" cx="2.596" cy="2.713" rx="2.596" ry="2.713" transform="translate(573.231 690.107)"/><path class="d" d="M697.569,890.84a2.715,2.715,0,1,0-2.6-2.713A2.663,2.663,0,0,0,697.569,890.84Z" transform="translate(-270.899 -180.28)"/><ellipse class="e" cx="2.597" cy="2.713" rx="2.597" ry="2.713" transform="translate(1012.415 705.134)"/><path class="d" d="M682.424,918.3a2.715,2.715,0,1,0-2.6-2.711A2.662,2.662,0,0,0,682.424,918.3Z" transform="translate(-264.04 -192.715)"/><path class="d" d="M667.278,945.766a2.718,2.718,0,1,0-2.594-2.715A2.664,2.664,0,0,0,667.278,945.766Z" transform="translate(-257.183 -205.151)"/><path class="d" d="M1666.829,945.766a2.718,2.718,0,1,0-2.6-2.715A2.663,2.663,0,0,0,1666.829,945.766Z" transform="translate(-709.821 -205.151)"/><path class="d" d="M1030.751,973.229a2.717,2.717,0,1,0-2.6-2.716A2.664,2.664,0,0,0,1030.751,973.229Z" transform="translate(-421.778 -217.588)"/><path class="d" d="M1106.477,973.229a2.717,2.717,0,1,0-2.6-2.716A2.663,2.663,0,0,0,1106.477,973.229Z" transform="translate(-456.07 -217.588)"/><path class="d" d="M1681.974,973.229a2.717,2.717,0,1,0-2.6-2.716A2.664,2.664,0,0,0,1681.974,973.229Z" transform="translate(-716.681 -217.588)"/><path class="d" d="M970.174,1000.692a2.715,2.715,0,1,0-2.6-2.715A2.662,2.662,0,0,0,970.174,1000.692Z" transform="translate(-394.347 -230.026)"/><path class="d" d="M1712.261,1000.692a2.715,2.715,0,1,0-2.6-2.715A2.664,2.664,0,0,0,1712.261,1000.692Z" transform="translate(-730.396 -230.026)"/><path class="d" d="M349.24,1028.155a2.716,2.716,0,1,0-2.6-2.713A2.661,2.661,0,0,0,349.24,1028.155Z" transform="translate(-113.159 -242.462)"/><path class="d" d="M546.118,1055.617a2.715,2.715,0,1,0-2.6-2.713A2.663,2.663,0,0,0,546.118,1055.617Z" transform="translate(-202.315 -254.898)"/><path class="d" d="M561.266,1055.617a2.715,2.715,0,1,0-2.6-2.713A2.663,2.663,0,0,0,561.266,1055.617Z" transform="translate(-209.175 -254.898)"/><path class="d" d="M924.739,1055.617a2.715,2.715,0,1,0-2.6-2.713A2.662,2.662,0,0,0,924.739,1055.617Z" transform="translate(-373.771 -254.898)"/><path class="d" d="M122.069,1083.078a2.715,2.715,0,1,0-2.6-2.711A2.66,2.66,0,0,0,122.069,1083.078Z" transform="translate(-10.287 -267.334)"/><path class="d" d="M500.687,1083.078a2.715,2.715,0,1,0-2.6-2.711A2.659,2.659,0,0,0,500.687,1083.078Z" transform="translate(-181.741 -267.334)"/><path class="d" d="M530.978,1083.078a2.715,2.715,0,1,0-2.6-2.711A2.66,2.66,0,0,0,530.978,1083.078Z" transform="translate(-195.459 -267.334)"/><path class="d" d="M576.411,1083.078a2.715,2.715,0,1,0-2.6-2.711A2.66,2.66,0,0,0,576.411,1083.078Z" transform="translate(-216.033 -267.334)"/><path class="d" d="M1651.683,1083.078a2.715,2.715,0,1,0-2.6-2.711A2.658,2.658,0,0,0,1651.683,1083.078Z" transform="translate(-702.963 -267.334)"/><path class="d" d="M500.687,1110.545a2.715,2.715,0,1,0-2.6-2.714A2.663,2.663,0,0,0,500.687,1110.545Z" transform="translate(-181.741 -279.773)"/><path class="d" d="M606.7,1110.545a2.715,2.715,0,1,0-2.6-2.714A2.663,2.663,0,0,0,606.7,1110.545Z" transform="translate(-229.747 -279.773)"/><path class="d" d="M636.99,1110.545a2.715,2.715,0,1,0-2.6-2.714A2.662,2.662,0,0,0,636.99,1110.545Z" transform="translate(-243.465 -279.773)"/><path class="d" d="M1666.829,1110.545a2.715,2.715,0,1,0-2.6-2.714A2.663,2.663,0,0,0,1666.829,1110.545Z" transform="translate(-709.821 -279.773)"/><path class="d" d="M1242.776,1138.007a2.716,2.716,0,1,0-2.6-2.716A2.663,2.663,0,0,0,1242.776,1138.007Z" transform="translate(-517.793 -292.208)"/><path class="d" d="M1666.829,1138.007a2.716,2.716,0,1,0-2.6-2.716A2.663,2.663,0,0,0,1666.829,1138.007Z" transform="translate(-709.821 -292.208)"/><path class="d" d="M1439.659,1165.468a2.717,2.717,0,1,0-2.6-2.714A2.665,2.665,0,0,0,1439.659,1165.468Z" transform="translate(-606.95 -304.642)"/><path class="d" d="M1545.671,1165.468a2.717,2.717,0,1,0-2.6-2.714A2.663,2.663,0,0,0,1545.671,1165.468Z" transform="translate(-654.956 -304.642)"/><path class="d" d="M1530.528,1192.929a2.715,2.715,0,1,0-2.6-2.713A2.66,2.66,0,0,0,1530.528,1192.929Z" transform="translate(-648.099 -317.08)"/><path class="d" d="M1560.815,1192.929a2.715,2.715,0,1,0-2.6-2.713A2.662,2.662,0,0,0,1560.815,1192.929Z" transform="translate(-661.815 -317.08)"/><path class="d" d="M1681.974,1220.395a2.715,2.715,0,1,0-2.6-2.712A2.661,2.661,0,0,0,1681.974,1220.395Z" transform="translate(-716.681 -329.517)"/><path class="d" d="M1575.958,1247.858a2.717,2.717,0,1,0-2.6-2.714A2.663,2.663,0,0,0,1575.958,1247.858Z" transform="translate(-668.672 -341.953)"/><path class="d" d="M1666.829,1247.858a2.716,2.716,0,1,0-2.6-2.714A2.663,2.663,0,0,0,1666.829,1247.858Z" transform="translate(-709.821 -341.953)"/><path class="d" d="M1833.422,1247.858a2.717,2.717,0,1,0-2.6-2.714A2.664,2.664,0,0,0,1833.422,1247.858Z" transform="translate(-785.263 -341.953)"/><path class="d" d="M1621.4,1275.322a2.716,2.716,0,1,0-2.6-2.714A2.663,2.663,0,0,0,1621.4,1275.322Z" transform="translate(-689.247 -354.39)"/><path class="d" d="M1894,1275.322a2.716,2.716,0,1,0-2.6-2.714A2.661,2.661,0,0,0,1894,1275.322Z" transform="translate(-812.695 -354.39)"/><path class="d" d="M1697.119,1302.784a2.716,2.716,0,1,0-2.6-2.713A2.663,2.663,0,0,0,1697.119,1302.784Z" transform="translate(-723.539 -366.826)"/><path class="d" d="M1787.988,1302.784a2.716,2.716,0,1,0-2.6-2.713A2.662,2.662,0,0,0,1787.988,1302.784Z" transform="translate(-764.688 -366.826)"/><path class="d" d="M1575.958,1330.246a2.715,2.715,0,1,0-2.6-2.713A2.662,2.662,0,0,0,1575.958,1330.246Z" transform="translate(-668.672 -379.262)"/><path class="d" d="M1757.7,1330.246a2.715,2.715,0,1,0-2.6-2.713A2.663,2.663,0,0,0,1757.7,1330.246Z" transform="translate(-750.971 -379.262)"/><path class="d" d="M1924.288,1330.246a2.715,2.715,0,1,0-2.6-2.713A2.662,2.662,0,0,0,1924.288,1330.246Z" transform="translate(-826.41 -379.262)"/><path class="d" d="M1984.867,1330.246a2.715,2.715,0,1,0-2.6-2.713A2.663,2.663,0,0,0,1984.867,1330.246Z" transform="translate(-853.844 -379.262)"/><path class="d" d="M1909.144,1357.71a2.716,2.716,0,1,0-2.6-2.713A2.66,2.66,0,0,0,1909.144,1357.71Z" transform="translate(-819.553 -391.699)"/><path class="d" d="M1939.433,1495.024a2.716,2.716,0,1,0-2.6-2.714A2.661,2.661,0,0,0,1939.433,1495.024Z" transform="translate(-833.268 -453.881)"/><path class="d" d="M1772.841,1522.487a2.716,2.716,0,1,0-2.6-2.714A2.661,2.661,0,0,0,1772.841,1522.487Z" transform="translate(-757.829 -466.317)"/><path class="d" d="M697.569,1577.413a2.715,2.715,0,1,0-2.6-2.714A2.663,2.663,0,0,0,697.569,1577.413Z" transform="translate(-270.899 -491.191)"/><path class="d" d="M1878.853,1577.413a2.715,2.715,0,1,0-2.6-2.714A2.664,2.664,0,0,0,1878.853,1577.413Z" transform="translate(-805.836 -491.191)"/><path class="d" d="M652.134,1604.875a2.716,2.716,0,1,0-2.6-2.715A2.662,2.662,0,0,0,652.134,1604.875Z" transform="translate(-250.323 -503.626)"/><path class="d" d="M633.989,501.829a2.716,2.716,0,0,1,0,5.427H625.7a2.716,2.716,0,0,1,0-5.427h8.287Z" transform="translate(-238.354 -6.576)"/><path class="d" d="M555.121,569.694a2.716,2.716,0,0,1,0,5.427H538.548a2.716,2.716,0,0,1,0-5.427h16.572Z" transform="translate(-198.887 -37.308)"/><path class="d" d="M547.549,583.32a2.715,2.715,0,0,1,0,5.426H530.978a2.715,2.715,0,0,1,0-5.426h16.571Z" transform="translate(-195.459 -43.478)"/><path class="d" d="M675.567,583.32a2.715,2.715,0,0,1,0,5.426h-8.289a2.716,2.716,0,0,1,0-5.426h8.289Z" transform="translate(-257.183 -43.478)"/><path class="d" d="M584.7,610.782a2.716,2.716,0,0,1,0,5.426h-8.286a2.716,2.716,0,0,1,0-5.426H584.7Z" transform="translate(-216.033 -55.915)"/><path class="d" d="M441.819,803.019a2.716,2.716,0,0,1,0,5.427H334.094a2.716,2.716,0,0,1,0-5.427H441.819Z" transform="translate(-106.301 -142.968)"/><path class="d" d="M630.133,775.558a2.715,2.715,0,0,1,0,5.426h-8.287a2.715,2.715,0,0,1,0-5.426h8.287Z" transform="translate(-236.607 -130.532)"/><path class="d" d="M122.78,1064.033a2.715,2.715,0,0,1,0,5.425H114.5a2.715,2.715,0,0,1,0-5.425h8.284Z" transform="translate(-6.857 -261.167)"/><path class="d" d="M1417.656,555.855a2.716,2.716,0,0,1,0,5.427h-8.286a2.716,2.716,0,0,1,0-5.427h8.286Z" transform="translate(-593.233 -31.041)"/><path class="d" d="M1372.935,597.157a2.716,2.716,0,0,1,0,5.427h-16.573a2.716,2.716,0,0,1,0-5.427h16.573Z" transform="translate(-569.229 -49.744)"/><path class="d" d="M1281.352,638.242a2.716,2.716,0,0,1,0,5.427h-8.285a2.716,2.716,0,0,1,0-5.427h8.285Z" transform="translate(-531.51 -68.35)"/><path class="d" d="M1319.215,624.622a2.716,2.716,0,0,1,0,5.427h-8.288a2.716,2.716,0,0,1,0-5.427h8.288Z" transform="translate(-548.654 -62.182)"/><path class="d" d="M1659.97,583.32a2.715,2.715,0,0,1,0,5.426h-8.287a2.715,2.715,0,0,1,0-5.426h8.287Z" transform="translate(-702.963 -43.478)"/><path class="d" d="M1235.916,693.172a2.715,2.715,0,0,1,0,5.426h-8.285a2.715,2.715,0,0,1,0-5.426h8.285Z" transform="translate(-510.933 -93.224)"/><path class="d" d="M1040.465,802.208a2.715,2.715,0,0,1,0,5.425H1015.6a2.715,2.715,0,0,1,0-5.425h24.861Z" transform="translate(-414.919 -142.601)"/><path class="d" d="M1061.755,816.86a2.716,2.716,0,0,1,0,5.427h-8.287a2.716,2.716,0,0,1,0-5.427h8.287Z" transform="translate(-432.065 -149.236)"/><path class="d" d="M1039.039,857.949a2.715,2.715,0,0,1,0,5.426h-8.288a2.715,2.715,0,0,1,0-5.426h8.288Z" transform="translate(-421.778 -167.843)"/><path class="d" d="M1735.694,857.949a2.715,2.715,0,0,1,0,5.426h-8.287a2.715,2.715,0,0,1,0-5.426h8.287Z" transform="translate(-737.254 -167.843)"/><path class="d" d="M1735.694,912.875a2.715,2.715,0,0,1,0,5.426h-8.287a2.715,2.715,0,0,1,0-5.426h8.287Z" transform="translate(-737.254 -192.715)"/><path class="d" d="M1743.267,926.717a2.715,2.715,0,0,1,0,5.425h-8.284a2.715,2.715,0,0,1,0-5.425h8.284Z" transform="translate(-740.685 -198.984)"/><path class="d" d="M1750.838,940.336a2.718,2.718,0,0,1,0,5.43h-8.285a2.718,2.718,0,0,1,0-5.43h8.285Z" transform="translate(-744.113 -205.151)"/><path class="d" d="M1743.267,954.177a2.715,2.715,0,0,1,0,5.425h-8.284a2.715,2.715,0,0,1,0-5.425h8.284Z" transform="translate(-740.685 -211.419)"/><path class="d" d="M1735.694,967.8a2.717,2.717,0,0,1,0,5.428h-8.287a2.717,2.717,0,0,1,0-5.428h8.287Z" transform="translate(-737.254 -217.588)"/><path class="d" d="M1728.123,981.638a2.716,2.716,0,0,1,0,5.426h-8.288a2.716,2.716,0,0,1,0-5.426h8.288Z" transform="translate(-733.826 -223.854)"/><path class="d" d="M1697.832,1009.1a2.717,2.717,0,0,1,0,5.428h-8.287a2.717,2.717,0,0,1,0-5.428h8.287Z" transform="translate(-720.109 -236.291)"/><path class="d" d="M1374.79,926.717a2.715,2.715,0,0,1,0,5.425H1151.054a2.715,2.715,0,0,1,0-5.425H1374.79Z" transform="translate(-413.64 -198.984)"/><path class="d" d="M1199.484,926.717a2.715,2.715,0,0,1,0,5.425h-24.858a2.715,2.715,0,0,1,0-5.425h24.858Z" transform="translate(-486.931 -198.984)"/><path class="d" d="M1023.892,995.266a2.715,2.715,0,0,1,0,5.426H1015.6a2.715,2.715,0,0,1,0-5.426h8.288Z" transform="translate(-414.919 -230.026)"/><path class="d" d="M1069.326,967.8a2.717,2.717,0,0,1,0,5.428h-8.286a2.717,2.717,0,0,1,0-5.428h8.286Z" transform="translate(-435.494 -217.588)"/><path class="d" d="M1069.326,995.266a2.715,2.715,0,0,1,0,5.426h-8.286a2.715,2.715,0,0,1,0-5.426h8.286Z" transform="translate(-435.494 -230.026)"/><path class="d" d="M1006.175,1022.728a2.716,2.716,0,0,1,0,5.427H939.882a2.716,2.716,0,0,1,0-5.427h66.293Z" transform="translate(-380.629 -242.462)"/><path class="d" d="M1114.762,1022.728a2.716,2.716,0,0,1,0,5.427h-8.285a2.716,2.716,0,0,1,0-5.427h8.285Z" transform="translate(-456.07 -242.462)"/><path class="d" d="M1057.322,1050.191a2.715,2.715,0,0,1,0,5.426H924.739a2.715,2.715,0,0,1,0-5.426h132.583Z" transform="translate(-373.771 -254.898)"/><path class="d" d="M1058.039,1064.033a2.715,2.715,0,0,1,0,5.425H917.168a2.715,2.715,0,0,1,0-5.425h140.871Z" transform="translate(-370.343 -261.167)"/><path class="d" d="M1051.893,1077.652a2.717,2.717,0,0,1,0,5.429H894.448a2.717,2.717,0,0,1,0-5.429h157.445Z" transform="translate(-360.054 -267.334)"/><path class="d" d="M1059.465,1091.493a2.715,2.715,0,0,1,0,5.426H902.021a2.715,2.715,0,0,1,0-5.426h157.444Z" transform="translate(-363.483 -273.602)"/><path class="d" d="M1060.178,1105.12a2.715,2.715,0,0,1,0,5.425H894.448a2.715,2.715,0,0,1,0-5.425h165.73Z" transform="translate(-360.054 -279.773)"/><path class="d" d="M1074.612,1118.954a2.715,2.715,0,0,1,0,5.425H917.168a2.715,2.715,0,0,1,0-5.425h157.444Z" transform="translate(-370.343 -286.037)"/><path class="d" d="M1068.465,1132.58a2.716,2.716,0,0,1,0,5.427H894.448a2.716,2.716,0,0,1,0-5.427h174.017Z" transform="translate(-360.054 -292.208)"/><path class="d" d="M1479.514,1036.567a2.715,2.715,0,0,1,0,5.426H1280.639a2.715,2.715,0,0,1,0-5.426h198.875Z" transform="translate(-534.939 -248.729)"/><path class="d" d="M1492.516,1050.191a2.715,2.715,0,0,1,0,5.426H1318.5a2.715,2.715,0,0,1,0-5.426h174.016Z" transform="translate(-552.083 -254.898)"/><path class="d" d="M1522.093,1064.033a2.715,2.715,0,0,1,0,5.425H1356.362a2.715,2.715,0,0,1,0-5.425h165.731Z" transform="translate(-569.229 -261.167)"/><path class="d" d="M1421.941,1077.652a2.717,2.717,0,0,1,0,5.429h-58.007a2.717,2.717,0,0,1,0-5.429h58.007Z" transform="translate(-572.658 -267.334)"/><path class="d" d="M1566.529,1077.652a2.717,2.717,0,0,1,0,5.429h-66.292a2.717,2.717,0,0,1,0-5.429h66.292Z" transform="translate(-634.382 -267.334)"/><path class="d" d="M1428.085,1091.493a2.715,2.715,0,0,1,0,5.426h-41.433a2.715,2.715,0,0,1,0-5.426h41.433Z" transform="translate(-582.946 -273.602)"/><path class="d" d="M1547.811,1091.493a2.715,2.715,0,0,1,0,5.426h-24.856a2.715,2.715,0,0,1,0-5.426h24.856Z" transform="translate(-644.668 -273.602)"/><path class="d" d="M1427.37,1105.12a2.715,2.715,0,0,1,0,5.425h-33.145a2.715,2.715,0,0,1,0-5.425h33.145Z" transform="translate(-586.376 -279.773)"/><path class="d" d="M1425.943,1132.58a2.716,2.716,0,0,1,0,5.427H1409.37a2.716,2.716,0,0,1,0-5.427h16.572Z" transform="translate(-593.233 -292.208)"/><path class="d" d="M1577.387,1132.58a2.716,2.716,0,0,1,0,5.427h-16.572a2.716,2.716,0,0,1,0-5.427h16.572Z" transform="translate(-661.815 -292.208)"/><path class="d" d="M1569.818,1118.954a2.715,2.715,0,0,1,0,5.425h-16.573a2.715,2.715,0,0,1,0-5.425h16.573Z" transform="translate(-658.386 -286.037)"/><path class="d" d="M1548.525,1105.12a2.715,2.715,0,0,1,0,5.425h-33.145a2.715,2.715,0,0,1,0-5.425h33.145Z" transform="translate(-641.239 -279.773)"/><path class="d" d="M1425.227,1118.954a2.715,2.715,0,0,1,0,5.425h-8.286a2.715,2.715,0,0,1,0-5.425h8.286Z" transform="translate(-596.662 -286.037)"/><path class="d" d="M1198.057,1242.432a2.716,2.716,0,0,1,0,5.427h-8.286a2.716,2.716,0,0,1,0-5.427h8.286Z" transform="translate(-493.789 -341.954)"/><path class="d" d="M1614.537,1105.12a2.715,2.715,0,0,1,0,5.425h-8.287a2.715,2.715,0,0,1,0-5.425h8.287Z" transform="translate(-682.389 -279.773)"/><path class="d" d="M1667.543,1118.954a2.715,2.715,0,0,1,0,5.425h-8.286a2.715,2.715,0,0,1,0-5.425h8.286Z" transform="translate(-706.393 -286.037)"/><path class="d" d="M1076.036,1146.414a2.715,2.715,0,0,1,0,5.426H902.021a2.715,2.715,0,0,1,0-5.426h174.015Z" transform="translate(-363.483 -298.472)"/><path class="d" d="M1115.328,1160.043a2.716,2.716,0,0,1,0,5.427H924.739a2.716,2.716,0,0,1,0-5.427h190.589Z" transform="translate(-373.771 -304.644)"/><path class="d" d="M957.17,1173.884a2.715,2.715,0,0,1,0,5.425H932.311a2.715,2.715,0,0,1,0-5.425H957.17Z" transform="translate(-377.2 -310.912)"/><path class="d" d="M1147.475,1173.884a2.715,2.715,0,0,1,0,5.425h-124.3a2.715,2.715,0,0,1,0-5.425h124.3Z" transform="translate(-418.348 -310.912)"/><path class="d" d="M956.456,1187.5a2.715,2.715,0,0,1,0,5.425H939.882a2.715,2.715,0,0,1,0-5.425h16.574Z" transform="translate(-380.629 -317.08)"/><path class="d" d="M1139.9,1187.5a2.715,2.715,0,0,1,0,5.425H1015.6a2.715,2.715,0,0,1,0-5.425h124.3Z" transform="translate(-414.919 -317.08)"/><path class="d" d="M1152.906,1201.34a2.717,2.717,0,0,1,0,5.428h-99.438a2.717,2.717,0,0,1,0-5.428h99.438Z" transform="translate(-432.065 -323.345)"/><path class="d" d="M1103.9,1214.969a2.715,2.715,0,0,1,0,5.426h-58a2.715,2.715,0,0,1,0-5.426h58Z" transform="translate(-428.637 -329.517)"/><path class="d" d="M1198.771,1214.969a2.715,2.715,0,0,1,0,5.426H1182.2a2.715,2.715,0,0,1,0-5.426h16.572Z" transform="translate(-490.36 -329.517)"/><path class="d" d="M1195.115,1228.806a2.715,2.715,0,0,1,0,5.425h-16.572a2.715,2.715,0,0,1,0-5.425h16.572Z" transform="translate(-488.704 -335.783)"/><path class="d" d="M1103.187,1228.806a2.715,2.715,0,0,1,0,5.425h-49.719a2.715,2.715,0,0,1,0-5.425h49.719Z" transform="translate(-432.065 -335.783)"/><path class="d" d="M1102.473,1242.43a2.717,2.717,0,0,1,0,5.428H1061.04a2.717,2.717,0,0,1,0-5.428h41.433Z" transform="translate(-435.494 -341.953)"/><path class="d" d="M1110.047,1256.271a2.715,2.715,0,0,1,0,5.425h-41.432a2.715,2.715,0,0,1,0-5.425h41.432Z" transform="translate(-438.925 -348.22)"/><path class="d" d="M1135.618,1269.9a2.716,2.716,0,0,1,0,5.427H1061.04a2.716,2.716,0,0,1,0-5.427h74.579Z" transform="translate(-435.494 -354.39)"/><path class="d" d="M1150.05,1283.73a2.717,2.717,0,0,1,0,5.428h-66.294a2.717,2.717,0,0,1,0-5.428h66.294Z" transform="translate(-445.782 -360.655)"/><path class="d" d="M1142.477,1297.357a2.716,2.716,0,0,1,0,5.427h-66.292a2.716,2.716,0,0,1,0-5.427h66.292Z" transform="translate(-442.353 -366.826)"/><path class="d" d="M1143.193,1311.191a2.718,2.718,0,0,1,0,5.43h-74.579a2.718,2.718,0,0,1,0-5.43h74.579Z" transform="translate(-438.925 -373.091)"/><path class="d" d="M1135.618,1324.82a2.715,2.715,0,0,1,0,5.426H1061.04a2.715,2.715,0,0,1,0-5.426h74.579Z" transform="translate(-435.494 -379.262)"/><path class="d" d="M1126.62,1338.661a2.715,2.715,0,0,1,0,5.425h-58.006a2.715,2.715,0,0,1,0-5.425h58.006Z" transform="translate(-438.925 -385.53)"/><path class="d" d="M1134.192,1352.283a2.716,2.716,0,0,1,0,5.427h-58.007a2.716,2.716,0,0,1,0-5.427h58.007Z" transform="translate(-442.353 -391.699)"/><path class="d" d="M1118.333,1366.122a2.715,2.715,0,0,1,0,5.426h-49.719a2.715,2.715,0,0,1,0-5.426h49.719Z" transform="translate(-438.925 -397.966)"/><path class="d" d="M1117.617,1379.746a2.715,2.715,0,0,1,0,5.425h-41.432a2.715,2.715,0,0,1,0-5.425h41.432Z" transform="translate(-442.353 -404.135)"/><path class="d" d="M1125.19,1393.585a2.716,2.716,0,0,1,0,5.427h-41.434a2.716,2.716,0,0,1,0-5.427h41.434Z" transform="translate(-445.782 -410.402)"/><path class="d" d="M1116.188,1407.211a2.715,2.715,0,0,1,0,5.426h-24.859a2.715,2.715,0,0,1,0-5.426h24.859Z" transform="translate(-449.21 -416.573)"/><path class="d" d="M1115.474,1421.048a2.716,2.716,0,0,1,0,5.427H1098.9a2.716,2.716,0,0,1,0-5.427h16.572Z" transform="translate(-452.64 -422.839)"/><path class="d" d="M1425.227,1146.414a2.715,2.715,0,0,1,0,5.426h-8.286a2.715,2.715,0,0,1,0-5.426h8.286Z" transform="translate(-596.662 -298.472)"/><path class="d" d="M1546.385,1146.414a2.715,2.715,0,0,1,0,5.426H1538.1a2.715,2.715,0,0,1,0-5.426h8.285Z" transform="translate(-651.527 -298.472)"/><path class="d" d="M1561.529,1173.884a2.715,2.715,0,0,1,0,5.425h-8.285a2.715,2.715,0,0,1,0-5.425h8.285Z" transform="translate(-658.386 -310.912)"/><path class="d" d="M1591.819,1146.414a2.715,2.715,0,0,1,0,5.426h-8.286a2.715,2.715,0,0,1,0-5.426h8.286Z" transform="translate(-672.102 -298.472)"/><path class="d" d="M1608.391,1256.271a2.715,2.715,0,0,1,0,5.425h-24.858a2.715,2.715,0,0,1,0-5.425h24.858Z" transform="translate(-672.102 -348.22)"/><path class="d" d="M1630.394,1228.806a2.715,2.715,0,0,1,0,5.425h-16.57a2.715,2.715,0,0,1,0-5.425h16.57Z" transform="translate(-685.818 -335.783)"/><path class="d" d="M1622.822,1214.969a2.715,2.715,0,0,1,0,5.426H1606.25a2.715,2.715,0,0,1,0-5.426h16.572Z" transform="translate(-682.389 -329.517)"/><path class="d" d="M1637.251,1201.34a2.717,2.717,0,0,1,0,5.428h-8.286a2.717,2.717,0,0,1,0-5.428h8.286Z" transform="translate(-692.676 -323.345)"/><path class="d" d="M1644.825,1187.5a2.715,2.715,0,0,1,0,5.425h-8.287a2.715,2.715,0,0,1,0-5.425h8.287Z" transform="translate(-696.105 -317.08)"/><path class="d" d="M1697.832,1201.34a2.717,2.717,0,0,1,0,5.428h-8.287a2.717,2.717,0,0,1,0-5.428h8.287Z" transform="translate(-720.109 -323.345)"/><path class="d" d="M1668.256,1269.9a2.716,2.716,0,0,1,0,5.427h-16.573a2.716,2.716,0,0,1,0-5.427h16.573Z" transform="translate(-702.963 -354.39)"/><path class="d" d="M1668.97,1283.73a2.717,2.717,0,0,1,0,5.428H1644.11a2.717,2.717,0,0,1,0-5.428h24.861Z" transform="translate(-699.535 -360.655)"/><path class="d" d="M1576.674,1311.191a2.718,2.718,0,0,1,0,5.43h-8.288a2.718,2.718,0,0,1,0-5.43h8.288Z" transform="translate(-665.243 -373.091)"/><path class="d" d="M1697.832,1311.191a2.718,2.718,0,0,1,0,5.43h-8.287a2.718,2.718,0,0,1,0-5.43h8.287Z" transform="translate(-720.109 -373.091)"/><path class="d" d="M1743.267,1283.73a2.717,2.717,0,0,1,0,5.428h-8.284a2.717,2.717,0,0,1,0-5.428h8.284Z" transform="translate(-740.685 -360.655)"/><path class="d" d="M1735.694,1297.357a2.716,2.716,0,0,1,0,5.427h-8.287a2.716,2.716,0,0,1,0-5.427h8.287Z" transform="translate(-737.254 -366.826)"/><path class="d" d="M1751.551,1311.191a2.718,2.718,0,0,1,0,5.43h-16.569a2.718,2.718,0,0,1,0-5.43h16.569Z" transform="translate(-740.685 -373.091)"/><path class="d" d="M1720.549,1214.969a2.715,2.715,0,0,1,0,5.426h-8.288a2.715,2.715,0,0,1,0-5.426h8.288Z" transform="translate(-730.396 -329.517)"/><path class="d" d="M1751.551,1228.806a2.715,2.715,0,0,1,0,5.425h-16.569a2.715,2.715,0,0,1,0-5.425h16.569Z" transform="translate(-740.685 -335.783)"/><path class="d" d="M1767.412,1242.43a2.717,2.717,0,0,1,0,5.428h-24.859a2.717,2.717,0,0,1,0-5.428h24.859Z" transform="translate(-744.113 -341.953)"/><path class="d" d="M1790.131,1256.271a2.715,2.715,0,0,1,0,5.425h-24.863a2.715,2.715,0,0,1,0-5.425h24.863Z" transform="translate(-754.401 -348.22)"/><path class="d" d="M1804.559,1269.9a2.716,2.716,0,0,1,0,5.427h-16.571a2.716,2.716,0,0,1,0-5.427h16.571Z" transform="translate(-764.688 -354.39)"/><path class="d" d="M1796.275,1324.82a2.715,2.715,0,0,1,0,5.426h-8.287a2.715,2.715,0,0,1,0-5.426h8.287Z" transform="translate(-764.688 -379.262)"/><path class="d" d="M1716.633,1324.82a2.715,2.715,0,0,1,0,5.426h-49.8a2.715,2.715,0,0,1,0-5.426h49.8Z" transform="translate(-709.821 -379.262)"/><path class="d" d="M1742.055,1338.661a2.715,2.715,0,0,1,0,5.425h-82.8a2.715,2.715,0,0,1,0-5.425h82.8Z" transform="translate(-706.393 -385.53)"/><path class="d" d="M1727.691,1352.283a2.716,2.716,0,0,1,0,5.427h-91.154a2.716,2.716,0,0,1,0-5.427h91.154Z" transform="translate(-696.105 -391.699)"/><path class="d" d="M1736.693,1366.122a2.716,2.716,0,0,1,0,5.426H1628.966a2.715,2.715,0,0,1,0-5.426h107.727Z" transform="translate(-692.676 -397.966)"/><path class="d" d="M1737.406,1379.746a2.715,2.715,0,0,1,0,5.425H1621.4a2.715,2.715,0,0,1,0-5.425h116.011Z" transform="translate(-689.247 -404.135)"/><path class="d" d="M1744.977,1393.585a2.716,2.716,0,0,1,0,5.427H1628.966a2.716,2.716,0,0,1,0-5.427h116.011Z" transform="translate(-692.676 -410.402)"/><path class="d" d="M1737.406,1407.211a2.715,2.715,0,0,1,0,5.426H1621.4a2.715,2.715,0,0,1,0-5.426h116.011Z" transform="translate(-689.247 -416.573)"/><path class="d" d="M1729.835,1421.048a2.716,2.716,0,0,1,0,5.427H1613.824a2.716,2.716,0,0,1,0-5.427h116.011Z" transform="translate(-685.818 -422.839)"/><path class="d" d="M1637.968,1434.67a2.716,2.716,0,0,1,0,5.427H1621.4a2.716,2.716,0,0,1,0-5.427h16.573Z" transform="translate(-689.247 -429.007)"/><path class="d" d="M1777.125,1434.67a2.716,2.716,0,0,1,0,5.427h-49.718a2.716,2.716,0,0,1,0-5.427h49.718Z" transform="translate(-737.254 -429.007)"/><path class="d" d="M1776.415,1448.513a2.716,2.716,0,0,1,0,5.427h-41.432a2.716,2.716,0,0,1,0-5.427h41.432Z" transform="translate(-740.685 -435.276)"/><path class="d" d="M1782.557,1462.135a2.715,2.715,0,0,1,0,5.425H1757.7a2.715,2.715,0,0,1,0-5.425h24.862Z" transform="translate(-750.971 -441.445)"/><path class="d" d="M1774.983,1475.973a2.716,2.716,0,0,1,0,5.427h-24.86a2.716,2.716,0,0,1,0-5.427h24.86Z" transform="translate(-747.542 -447.711)"/><path class="d" d="M1773.558,1503.436a2.716,2.716,0,0,1,0,5.427h-8.29a2.716,2.716,0,0,1,0-5.427h8.29Z" transform="translate(-754.401 -460.148)"/><path class="d" d="M1682.688,1146.414a2.715,2.715,0,0,1,0,5.426H1674.4a2.715,2.715,0,0,1,0-5.426h8.286Z" transform="translate(-713.252 -298.472)"/><path class="d" d="M1690.261,1160.043a2.716,2.716,0,0,1,0,5.427h-8.287a2.716,2.716,0,0,1,0-5.427h8.287Z" transform="translate(-716.681 -304.644)"/><path class="d" d="M1872.709,1256.271a2.715,2.715,0,0,1,0,5.425h-16.574a2.715,2.715,0,0,1,0-5.425h16.574Z" transform="translate(-795.548 -348.22)"/><path class="d" d="M1940.148,1503.436a2.716,2.716,0,0,1,0,5.427h-8.286a2.716,2.716,0,0,1,0-5.427h8.286Z" transform="translate(-829.84 -460.148)"/><path class="d" d="M1932.574,1517.06a2.716,2.716,0,0,1,0,5.427h-8.286a2.716,2.716,0,0,1,0-5.427h8.286Z" transform="translate(-826.41 -466.317)"/><path class="d" d="M1902.286,1544.521a2.717,2.717,0,0,1,0,5.429H1894a2.717,2.717,0,0,1,0-5.429h8.286Z" transform="translate(-812.695 -478.753)"/><path class="d" d="M1887.855,1558.361a2.717,2.717,0,0,1,0,5.428h-16.574a2.717,2.717,0,0,1,0-5.428h16.574Z" transform="translate(-802.408 -485.02)"/></g></g></svg>